<svg xmlns="http://www.w3.org/2000/svg" xmlns:xlink="http://www.w3.org/1999/xlink" width="500" zoomAndPan="magnify" viewBox="0 0 375 374.999991" height="500" preserveAspectRatio="xMidYMid meet" version="1.0"><defs><clipPath id="84646b368b"><path d="M 112.5 112.5 L 207 112.5 L 207 228 L 112.5 228 Z M 112.5 112.5 " clip-rule="nonzero"/></clipPath><clipPath id="cf32d3cfd6"><path d="M 112.5 222 L 207 222 L 207 262.5 L 112.5 262.5 Z M 112.5 222 " clip-rule="nonzero"/></clipPath><clipPath id="55d060869b"><path d="M 211 112.5 L 262.5 112.5 L 262.5 262.5 L 211 262.5 Z M 211 112.5 " clip-rule="nonzero"/></clipPath><clipPath id="33b23fcefc"><path d="M 250 164 L 262.5 164 L 262.5 169 L 250 169 Z M 250 164 " clip-rule="nonzero"/></clipPath><clipPath id="d5e04e1f7c"><path d="M 250 206 L 262.5 206 L 262.5 211 L 250 211 Z M 250 206 " clip-rule="nonzero"/></clipPath><clipPath id="62dc8d3154"><path d="M 201 112.5 L 216 112.5 L 216 262.5 L 201 262.5 Z M 201 112.5 " clip-rule="nonzero"/></clipPath></defs><path fill="#7f7f7f" d="M 203.988281 115.160156 C 203.988281 115.046875 203.890625 114.957031 203.785156 114.980469 L 115.003906 133.695312 L 115.027344 225.027344 L 204.011719 225.027344 L 203.988281 115.160156 " fill-opacity="1" fill-rule="nonzero"/><g clip-path="url(#84646b368b)"><path fill="#000000" d="M 206.328125 115.160156 L 206.351562 115.160156 Z M 117.363281 222.6875 L 201.667969 222.6875 L 201.644531 117.820312 L 117.347656 135.601562 Z M 206.359375 227.371094 L 112.691406 227.371094 L 112.65625 131.796875 L 204.394531 112.457031 L 205.394531 113.195312 C 205.984375 113.671875 206.328125 114.386719 206.328125 115.160156 L 206.359375 227.371094 " fill-opacity="1" fill-rule="nonzero"/></g><path fill="#4c4c4c" d="M 115.027344 225.027344 L 115.035156 253.152344 L 203.792969 260.140625 C 203.914062 260.148438 204.023438 260.035156 204.023438 259.90625 L 204.011719 225.027344 L 115.027344 225.027344 " fill-opacity="1" fill-rule="nonzero"/><g clip-path="url(#cf32d3cfd6)"><path fill="#000000" d="M 117.371094 250.988281 L 201.675781 257.625 L 201.675781 227.371094 L 117.371094 227.371094 Z M 203.808594 262.480469 C 203.746094 262.480469 203.679688 262.480469 203.625 262.472656 L 112.691406 255.3125 L 112.683594 222.6875 L 206.351562 222.6875 L 206.367188 260.929688 L 205.539062 261.804688 C 205.070312 262.234375 204.445312 262.480469 203.808594 262.480469 " fill-opacity="1" fill-rule="nonzero"/></g><path fill="#4c4c4c" d="M 260.203125 257.820312 L 213.613281 260.148438 C 213.484375 260.15625 213.371094 260.050781 213.371094 259.921875 L 213.371094 115.152344 C 213.371094 115.046875 213.46875 114.957031 213.574219 114.964844 L 260.203125 119.628906 L 260.203125 257.820312 " fill-opacity="1" fill-rule="nonzero"/><g clip-path="url(#55d060869b)"><path fill="#000000" d="M 215.714844 117.535156 L 215.714844 257.707031 L 257.859375 255.597656 L 257.859375 121.75 Z M 213.5 257.8125 C 213.5 257.8125 213.492188 257.8125 213.492188 257.8125 Z M 260.203125 257.820312 L 260.230469 257.820312 Z M 212.730469 262.542969 L 211.828125 261.789062 C 211.316406 261.300781 211.023438 260.621094 211.023438 259.921875 L 211.023438 114.113281 L 211.859375 113.277344 C 212.398438 112.796875 213.117188 112.5625 213.816406 112.632812 L 262.550781 117.511719 L 262.550781 260.050781 L 212.730469 262.542969 " fill-opacity="1" fill-rule="nonzero"/></g><path fill="#f65555" d="M 236.785156 215.660156 C 235.824219 215.660156 234.882812 215.773438 233.976562 215.992188 C 227.566406 217.511719 222.734375 224.125 222.734375 232.054688 C 222.734375 239.984375 227.566406 246.597656 233.976562 248.113281 C 234.882812 248.332031 235.824219 248.445312 236.785156 248.445312 C 244.550781 248.445312 250.839844 241.101562 250.839844 232.054688 C 250.839844 222.996094 244.550781 215.660156 236.785156 215.660156 " fill-opacity="1" fill-rule="nonzero"/><path fill="#000000" d="M 236.785156 218.007812 C 236.027344 218.007812 235.265625 218.09375 234.519531 218.265625 C 229.050781 219.5625 225.082031 225.359375 225.082031 232.054688 C 225.082031 238.742188 229.050781 244.542969 234.519531 245.84375 C 235.265625 246.011719 236.027344 246.101562 236.785156 246.101562 C 243.242188 246.101562 248.496094 239.804688 248.496094 232.054688 C 248.496094 224.304688 243.242188 218.007812 236.785156 218.007812 Z M 236.785156 250.785156 C 235.664062 250.785156 234.535156 250.65625 233.441406 250.394531 C 225.875 248.601562 220.390625 240.890625 220.390625 232.054688 C 220.390625 223.214844 225.875 215.5 233.441406 213.714844 C 234.535156 213.453125 235.664062 213.316406 236.785156 213.316406 C 245.824219 213.316406 253.175781 221.722656 253.175781 232.054688 C 253.175781 242.386719 245.824219 250.785156 236.785156 250.785156 " fill-opacity="1" fill-rule="nonzero"/><path fill="#f65555" d="M 233.976562 159.128906 C 234.882812 159.347656 235.824219 159.460938 236.785156 159.460938 C 244.550781 159.460938 250.839844 152.117188 250.839844 143.066406 C 250.839844 134.011719 244.550781 126.675781 236.785156 126.675781 C 235.824219 126.675781 234.882812 126.789062 233.976562 127.007812 C 227.566406 128.523438 222.734375 135.140625 222.734375 143.066406 C 222.734375 150.996094 227.566406 157.609375 233.976562 159.128906 " fill-opacity="1" fill-rule="nonzero"/><path fill="#000000" d="M 234.519531 156.847656 C 235.265625 157.027344 236.027344 157.117188 236.785156 157.117188 C 243.242188 157.117188 248.496094 150.816406 248.496094 143.066406 C 248.496094 135.316406 243.242188 129.019531 236.785156 129.019531 C 236.027344 129.019531 235.265625 129.109375 234.519531 129.28125 C 229.050781 130.578125 225.082031 136.371094 225.082031 143.066406 C 225.082031 149.761719 229.050781 155.558594 234.519531 156.847656 Z M 236.785156 161.796875 C 235.664062 161.796875 234.535156 161.667969 233.441406 161.410156 C 225.875 159.625 220.390625 151.90625 220.390625 143.066406 C 220.390625 134.230469 225.875 126.511719 233.441406 124.726562 C 234.535156 124.46875 235.664062 124.328125 236.785156 124.328125 C 245.824219 124.328125 253.175781 132.738281 253.175781 143.066406 C 253.175781 153.398438 245.824219 161.796875 236.785156 161.796875 " fill-opacity="1" fill-rule="nonzero"/><path fill="#7f7f7f" d="M 233.976562 159.128906 C 238.253906 157.609375 241.472656 150.996094 241.472656 143.066406 C 241.472656 135.140625 238.253906 128.523438 233.976562 127.007812 C 227.566406 128.523438 222.734375 135.140625 222.734375 143.066406 C 222.734375 150.996094 227.566406 157.609375 233.976562 159.128906 " fill-opacity="1" fill-rule="nonzero"/><path fill="#000000" d="M 233.789062 129.484375 C 228.699219 131.097656 225.082031 136.671875 225.082031 143.066406 C 225.082031 149.460938 228.699219 155.039062 233.789062 156.652344 C 236.484375 155.167969 239.128906 150.167969 239.128906 143.066406 C 239.128906 135.964844 236.484375 130.96875 233.789062 129.484375 Z M 234.105469 161.570312 L 233.441406 161.410156 C 225.875 159.625 220.390625 151.90625 220.390625 143.066406 C 220.390625 134.230469 225.875 126.511719 233.441406 124.726562 L 234.105469 124.566406 L 234.761719 124.800781 C 240.09375 126.691406 243.8125 134.207031 243.8125 143.066406 C 243.8125 151.929688 240.09375 159.445312 234.761719 161.335938 L 234.105469 161.570312 " fill-opacity="1" fill-rule="nonzero"/><path fill="#f65555" d="M 236.785156 171.171875 C 235.824219 171.171875 234.882812 171.285156 233.976562 171.496094 C 227.566406 173.015625 222.734375 179.628906 222.734375 187.558594 C 222.734375 195.484375 227.566406 202.109375 233.976562 203.625 C 234.882812 203.835938 235.824219 203.949219 236.785156 203.949219 C 244.550781 203.949219 250.839844 196.613281 250.839844 187.558594 C 250.839844 178.507812 244.550781 171.171875 236.785156 171.171875 " fill-opacity="1" fill-rule="nonzero"/><path fill="#000000" d="M 236.785156 173.507812 C 236.027344 173.507812 235.265625 173.597656 234.519531 173.777344 C 229.050781 175.074219 225.082031 180.871094 225.082031 187.558594 C 225.082031 194.253906 229.050781 200.046875 234.519531 201.34375 C 235.265625 201.523438 236.027344 201.613281 236.785156 201.613281 C 243.242188 201.613281 248.496094 195.308594 248.496094 187.558594 C 248.496094 179.816406 243.242188 173.507812 236.785156 173.507812 Z M 236.785156 206.296875 C 235.664062 206.296875 234.535156 206.164062 233.441406 205.898438 C 225.875 204.113281 220.390625 196.394531 220.390625 187.558594 C 220.390625 178.71875 225.875 171.007812 233.441406 169.214844 C 234.535156 168.957031 235.664062 168.828125 236.785156 168.828125 C 245.824219 168.828125 253.175781 177.234375 253.175781 187.558594 C 253.175781 197.886719 245.824219 206.296875 236.785156 206.296875 " fill-opacity="1" fill-rule="nonzero"/><path fill="#7f7f7f" d="M 241.472656 187.558594 C 241.472656 179.628906 238.253906 173.015625 233.976562 171.496094 C 227.566406 173.015625 222.734375 179.628906 222.734375 187.558594 C 222.734375 195.484375 227.566406 202.109375 233.976562 203.625 C 238.253906 202.109375 241.472656 195.484375 241.472656 187.558594 " fill-opacity="1" fill-rule="nonzero"/><path fill="#000000" d="M 233.789062 173.980469 C 228.699219 175.59375 225.082031 181.167969 225.082031 187.558594 C 225.082031 193.953125 228.699219 199.527344 233.789062 201.140625 C 236.484375 199.664062 239.128906 194.664062 239.128906 187.558594 C 239.128906 180.457031 236.484375 175.457031 233.789062 173.980469 Z M 234.105469 206.058594 L 233.441406 205.898438 C 225.875 204.113281 220.390625 196.394531 220.390625 187.558594 C 220.390625 178.71875 225.875 171.007812 233.441406 169.214844 L 234.105469 169.0625 L 234.761719 169.289062 C 240.09375 171.1875 243.8125 178.695312 243.8125 187.558594 C 243.8125 196.425781 240.09375 203.933594 234.761719 205.832031 L 234.105469 206.058594 " fill-opacity="1" fill-rule="nonzero"/><path fill="#7f7f7f" d="M 241.472656 232.054688 C 241.472656 224.125 238.253906 217.511719 233.976562 215.992188 C 227.566406 217.511719 222.734375 224.125 222.734375 232.054688 C 222.734375 239.984375 227.566406 246.597656 233.976562 248.113281 C 238.253906 246.597656 241.472656 239.984375 241.472656 232.054688 " fill-opacity="1" fill-rule="nonzero"/><path fill="#000000" d="M 233.789062 218.46875 C 228.699219 220.082031 225.082031 225.660156 225.082031 232.054688 C 225.082031 238.449219 228.699219 244.023438 233.789062 245.640625 C 236.484375 244.152344 239.128906 239.15625 239.128906 232.054688 C 239.128906 224.953125 236.484375 219.953125 233.789062 218.46875 Z M 234.105469 250.550781 L 233.441406 250.394531 C 225.875 248.601562 220.390625 240.890625 220.390625 232.054688 C 220.390625 223.214844 225.875 215.5 233.441406 213.714844 L 234.105469 213.550781 L 234.761719 213.785156 C 240.09375 215.675781 243.8125 223.191406 243.8125 232.054688 C 243.8125 240.917969 240.09375 248.429688 234.761719 250.320312 L 234.105469 250.550781 " fill-opacity="1" fill-rule="nonzero"/><g clip-path="url(#33b23fcefc)"><path fill="#000000" d="M 262.550781 168.828125 L 250.839844 168.828125 L 250.839844 164.144531 L 262.550781 164.144531 L 262.550781 168.828125 " fill-opacity="1" fill-rule="nonzero"/></g><path fill="#000000" d="M 225.082031 168.828125 L 211.023438 168.828125 L 211.023438 164.144531 L 225.082031 164.144531 L 225.082031 168.828125 " fill-opacity="1" fill-rule="nonzero"/><g clip-path="url(#d5e04e1f7c)"><path fill="#000000" d="M 262.550781 210.976562 L 250.839844 210.976562 L 250.839844 206.296875 L 262.550781 206.296875 L 262.550781 210.976562 " fill-opacity="1" fill-rule="nonzero"/></g><path fill="#000000" d="M 225.082031 210.976562 L 211.023438 210.976562 L 211.023438 206.296875 L 225.082031 206.296875 L 225.082031 210.976562 " fill-opacity="1" fill-rule="nonzero"/><path fill="#7f7f7f" d="M 204.003906 260.148438 L 213.371094 260.148438 L 213.371094 114.964844 L 204.003906 114.964844 L 204.003906 260.148438 " fill-opacity="1" fill-rule="nonzero"/><g clip-path="url(#62dc8d3154)"><path fill="#000000" d="M 206.34375 257.8125 L 211.023438 257.8125 L 211.023438 117.308594 L 206.34375 117.308594 Z M 215.714844 262.496094 L 201.660156 262.496094 L 201.660156 112.625 L 215.714844 112.625 L 215.714844 262.496094 " fill-opacity="1" fill-rule="nonzero"/></g><path fill="#000000" d="M 148.828125 247.410156 L 131.273438 246.378906 L 131.550781 241.703125 L 149.105469 242.734375 L 148.828125 247.410156 " fill-opacity="1" fill-rule="nonzero"/><path fill="#d4d4d4" d="M 204.003906 201.613281 L 182.929688 201.613281 L 182.929688 192.238281 L 204.003906 192.238281 L 204.003906 201.613281 " fill-opacity="1" fill-rule="nonzero"/><path fill="#000000" d="M 185.265625 199.265625 L 201.660156 199.265625 L 201.660156 194.585938 L 185.265625 194.585938 Z M 206.34375 203.949219 L 180.585938 203.949219 L 180.585938 189.902344 L 206.34375 189.902344 L 206.34375 203.949219 " fill-opacity="1" fill-rule="nonzero"/><path fill="#000000" d="M 122.039062 217.699219 L 122.039062 213.015625 L 126.730469 213.015625 L 126.730469 217.699219 C 122.039062 217.699219 126.730469 217.699219 122.039062 217.699219 Z M 131.414062 217.699219 L 131.414062 213.015625 L 136.09375 213.015625 L 136.09375 217.699219 C 131.414062 217.699219 136.09375 217.699219 131.414062 217.699219 " fill-opacity="1" fill-rule="nonzero"/><path fill="#000000" d="M 126.730469 213.015625 L 126.730469 208.332031 L 131.414062 208.332031 L 131.414062 213.015625 C 126.730469 213.015625 131.414062 213.015625 126.730469 213.015625 Z M 136.09375 213.015625 L 136.09375 208.332031 L 140.777344 208.332031 L 140.777344 213.015625 C 136.09375 213.015625 140.777344 213.015625 136.09375 213.015625 " fill-opacity="1" fill-rule="nonzero"/><path fill="#000000" d="M 126.730469 203.675781 L 126.730469 198.96875 L 131.414062 198.96875 L 131.414062 203.675781 C 126.730469 203.675781 131.414062 203.675781 126.730469 203.675781 " fill-opacity="1" fill-rule="nonzero"/><path fill="#000000" d="M 126.730469 194.277344 L 126.730469 189.59375 L 131.414062 189.59375 L 131.414062 194.277344 C 126.730469 194.277344 131.414062 194.277344 126.730469 194.277344 " fill-opacity="1" fill-rule="nonzero"/><path fill="#000000" d="M 122.039062 208.332031 L 122.039062 203.648438 L 126.730469 203.648438 L 126.730469 208.332031 C 122.039062 208.332031 126.730469 208.332031 122.039062 208.332031 Z M 131.414062 208.332031 L 131.414062 203.648438 L 136.09375 203.648438 L 136.09375 208.332031 C 131.414062 208.332031 136.09375 208.332031 131.414062 208.332031 " fill-opacity="1" fill-rule="nonzero"/><path fill="#000000" d="M 122.039062 198.96875 L 122.039062 194.277344 L 126.730469 194.277344 L 126.730469 198.96875 C 122.039062 198.96875 126.730469 198.96875 122.039062 198.96875 Z M 131.414062 198.96875 L 131.414062 194.277344 L 136.09375 194.277344 L 136.09375 198.96875 C 131.414062 198.96875 136.09375 198.96875 131.414062 198.96875 " fill-opacity="1" fill-rule="nonzero"/><path fill="#000000" d="M 122.039062 189.59375 L 122.039062 184.910156 L 126.730469 184.910156 L 126.730469 189.59375 C 122.039062 189.59375 126.730469 189.59375 122.039062 189.59375 Z M 131.414062 189.59375 L 131.414062 184.910156 L 136.09375 184.910156 L 136.09375 189.59375 C 131.414062 189.59375 136.09375 189.59375 131.414062 189.59375 " fill-opacity="1" fill-rule="nonzero"/><path fill="#000000" d="M 147.691406 145.445312 L 114.546875 137.800781 L 115.601562 133.230469 L 147.917969 140.691406 L 205.035156 133.117188 L 205.652344 137.761719 L 147.691406 145.445312 " fill-opacity="1" fill-rule="nonzero"/><path fill="#000000" d="M 150.144531 227.371094 L 145.460938 227.371094 L 145.460938 140.722656 L 150.144531 140.722656 L 150.144531 227.371094 " fill-opacity="1" fill-rule="nonzero"/><path fill="#4c4c4c" d="M 182.929688 201.613281 L 143.113281 201.613281 L 143.113281 192.238281 L 182.929688 192.238281 L 182.929688 201.613281 " fill-opacity="1" fill-rule="nonzero"/><path fill="#000000" d="M 145.460938 199.265625 L 180.585938 199.265625 L 180.585938 194.585938 L 145.460938 194.585938 Z M 185.265625 203.949219 L 140.777344 203.949219 L 140.777344 189.902344 L 185.265625 189.902344 L 185.265625 203.949219 " fill-opacity="1" fill-rule="nonzero"/><path fill="#f65555" d="M 204.003906 225.027344 L 145.460938 225.027344 L 145.460938 215.660156 L 204.003906 215.660156 L 204.003906 225.027344 " fill-opacity="1" fill-rule="nonzero"/><path fill="#000000" d="M 147.804688 222.6875 L 201.660156 222.6875 L 201.660156 218.007812 L 147.804688 218.007812 Z M 206.34375 227.371094 L 143.113281 227.371094 L 143.113281 213.316406 L 206.34375 213.316406 L 206.34375 227.371094 " fill-opacity="1" fill-rule="nonzero"/><path fill="#d4d4d4" d="M 138.433594 157.117188 C 138.433594 162.292969 135.292969 166.488281 131.414062 166.488281 C 127.523438 166.488281 124.382812 162.292969 124.382812 157.117188 C 124.382812 151.945312 127.523438 147.75 131.414062 147.75 C 135.292969 147.75 138.433594 151.945312 138.433594 157.117188 " fill-opacity="1" fill-rule="nonzero"/><path fill="#000000" d="M 131.414062 150.097656 C 128.871094 150.097656 126.730469 153.308594 126.730469 157.117188 C 126.730469 160.929688 128.871094 164.144531 131.414062 164.144531 C 133.945312 164.144531 136.09375 160.929688 136.09375 157.117188 C 136.09375 153.308594 133.945312 150.097656 131.414062 150.097656 Z M 131.414062 168.828125 C 126.242188 168.828125 122.039062 163.574219 122.039062 157.117188 C 122.039062 150.664062 126.242188 145.40625 131.414062 145.40625 C 136.574219 145.40625 140.777344 150.664062 140.777344 157.117188 C 140.777344 163.574219 136.574219 168.828125 131.414062 168.828125 " fill-opacity="1" fill-rule="nonzero"/><path fill="#000000" d="M 140.777344 178.191406 L 122.039062 178.191406 L 122.039062 173.507812 L 140.777344 173.507812 L 140.777344 178.191406 " fill-opacity="1" fill-rule="nonzero"/><path fill="#d4d4d4" d="M 185.265625 166.488281 C 185.265625 175.539062 178.976562 182.875 171.21875 182.875 C 163.460938 182.875 157.171875 175.539062 157.171875 166.488281 C 157.171875 157.433594 163.460938 150.097656 171.21875 150.097656 C 178.976562 150.097656 185.265625 157.433594 185.265625 166.488281 " fill-opacity="1" fill-rule="nonzero"/><path fill="#000000" d="M 171.21875 152.433594 C 164.765625 152.433594 159.507812 158.738281 159.507812 166.488281 C 159.507812 174.230469 164.765625 180.535156 171.21875 180.535156 C 177.671875 180.535156 182.929688 174.230469 182.929688 166.488281 C 182.929688 158.738281 177.671875 152.433594 171.21875 152.433594 Z M 171.21875 185.21875 C 162.179688 185.21875 154.824219 176.8125 154.824219 166.488281 C 154.824219 156.15625 162.179688 147.75 171.21875 147.75 C 180.257812 147.75 187.613281 156.15625 187.613281 166.488281 C 187.613281 176.8125 180.257812 185.21875 171.21875 185.21875 " fill-opacity="1" fill-rule="nonzero"/><path fill="#000000" d="M 182.253906 178.96875 L 177.574219 178.96875 L 177.574219 175.042969 C 177.574219 172.121094 175.820312 169.621094 173.5 169.238281 L 168.175781 168.347656 C 163.542969 167.578125 160.183594 163.195312 160.183594 157.925781 L 160.183594 154 L 164.863281 154 L 164.863281 157.925781 C 164.863281 160.847656 166.617188 163.347656 168.9375 163.730469 L 174.261719 164.613281 C 178.894531 165.386719 182.253906 169.777344 182.253906 175.042969 L 182.253906 178.96875 " fill-opacity="1" fill-rule="nonzero"/><path fill="#000000" d="M 163.882812 178.96875 L 160.183594 178.96875 L 160.183594 174.289062 L 163.882812 174.289062 C 166.179688 174.289062 168.167969 172.144531 168.515625 169.304688 L 169.269531 163.097656 C 169.914062 157.910156 173.898438 154 178.554688 154 L 182.253906 154 L 182.253906 158.683594 L 178.554688 158.683594 C 176.257812 158.683594 174.269531 160.824219 173.921875 163.664062 L 173.167969 169.875 C 172.523438 175.058594 168.539062 178.96875 163.882812 178.96875 " fill-opacity="1" fill-rule="nonzero"/><path fill="#4c4c4c" d="M 166.535156 166.488281 C 166.535156 163.898438 168.628906 161.796875 171.21875 161.796875 C 173.808594 161.796875 175.902344 163.898438 175.902344 166.488281 C 175.902344 169.070312 173.808594 171.171875 171.21875 171.171875 C 168.628906 171.171875 166.535156 169.070312 166.535156 166.488281 " fill-opacity="1" fill-rule="nonzero"/><path fill="#000000" d="M 171.21875 164.144531 C 169.929688 164.144531 168.875 165.191406 168.875 166.488281 C 168.875 167.78125 169.929688 168.828125 171.21875 168.828125 C 172.507812 168.828125 173.5625 167.78125 173.5625 166.488281 C 173.5625 165.191406 172.507812 164.144531 171.21875 164.144531 Z M 171.21875 173.507812 C 167.347656 173.507812 164.191406 170.359375 164.191406 166.488281 C 164.191406 162.609375 167.347656 159.460938 171.21875 159.460938 C 175.089844 159.460938 178.246094 162.609375 178.246094 166.488281 C 178.246094 170.359375 175.089844 173.507812 171.21875 173.507812 " fill-opacity="1" fill-rule="nonzero"/><path fill="#000000" d="M 196.976562 218.007812 L 192.292969 218.007812 L 192.292969 199.265625 L 196.976562 199.265625 L 196.976562 218.007812 " fill-opacity="1" fill-rule="nonzero"/><path fill="#000000" d="M 187.613281 218.007812 L 182.929688 218.007812 L 182.929688 199.265625 L 187.613281 199.265625 L 187.613281 218.007812 " fill-opacity="1" fill-rule="nonzero"/><path fill="#000000" d="M 178.246094 218.007812 L 173.5625 218.007812 L 173.5625 199.265625 L 178.246094 199.265625 L 178.246094 218.007812 " fill-opacity="1" fill-rule="nonzero"/><path fill="#000000" d="M 168.875 218.007812 L 164.191406 218.007812 L 164.191406 199.265625 L 168.875 199.265625 L 168.875 218.007812 " fill-opacity="1" fill-rule="nonzero"/><path fill="#000000" d="M 159.507812 218.007812 L 154.824219 218.007812 L 154.824219 199.265625 L 159.507812 199.265625 L 159.507812 218.007812 " fill-opacity="1" fill-rule="nonzero"/><path fill="#4c4c4c" d="M 194.640625 192.238281 L 204.003906 192.238281 L 204.003906 145.40625 L 194.640625 147.75 L 194.640625 192.238281 " fill-opacity="1" fill-rule="nonzero"/><path fill="#000000" d="M 196.976562 189.902344 L 201.660156 189.902344 L 201.660156 148.40625 L 196.976562 149.578125 Z M 206.34375 194.585938 L 192.292969 194.585938 L 192.292969 145.925781 L 206.34375 142.410156 L 206.34375 194.585938 " fill-opacity="1" fill-rule="nonzero"/><path fill="#000000" d="M 196.976562 185.21875 L 187.613281 185.21875 L 187.613281 180.535156 L 196.976562 180.535156 L 196.976562 185.21875 " fill-opacity="1" fill-rule="nonzero"/><path fill="#000000" d="M 154.824219 154.777344 L 145.460938 154.777344 L 145.460938 150.097656 L 154.824219 150.097656 L 154.824219 154.777344 " fill-opacity="1" fill-rule="nonzero"/><path fill="#000000" d="M 154.824219 185.21875 L 145.460938 185.21875 L 145.460938 180.535156 L 154.824219 180.535156 L 154.824219 185.21875 " fill-opacity="1" fill-rule="nonzero"/><path fill="#000000" d="M 196.976562 152.433594 L 187.613281 152.433594 L 187.613281 147.75 L 196.976562 147.75 L 196.976562 152.433594 " fill-opacity="1" fill-rule="nonzero"/><path fill="#000000" d="M 185.597656 131.179688 L 184.984375 126.535156 L 203.671875 124.046875 L 204.289062 128.6875 L 185.597656 131.179688 " fill-opacity="1" fill-rule="nonzero"/><path fill="#000000" d="M 196.976562 253.128906 L 192.292969 253.128906 L 192.292969 222.6875 L 196.976562 222.6875 L 196.976562 253.128906 " fill-opacity="1" fill-rule="nonzero"/><path fill="#000000" d="M 126.730469 246.101562 L 122.039062 246.101562 L 122.039062 222.6875 L 126.730469 222.6875 L 126.730469 246.101562 " fill-opacity="1" fill-rule="nonzero"/></svg>