<svg xmlns="http://www.w3.org/2000/svg" xmlns:xlink="http://www.w3.org/1999/xlink" width="500" zoomAndPan="magnify" viewBox="0 0 375 374.999991" height="500" preserveAspectRatio="xMidYMid meet" version="1.0"><defs><clipPath id="f1de7a1dce"><path d="M 141 112.5 L 146 112.5 L 146 129 L 141 129 Z M 141 112.5 " clip-rule="nonzero"/></clipPath><clipPath id="f35ebe4a7c"><path d="M 155 112.5 L 161 112.5 L 161 129 L 155 129 Z M 155 112.5 " clip-rule="nonzero"/></clipPath><clipPath id="1274755a84"><path d="M 170 112.5 L 176 112.5 L 176 129 L 170 129 Z M 170 112.5 " clip-rule="nonzero"/></clipPath><clipPath id="90be148e3b"><path d="M 185 112.5 L 190 112.5 L 190 129 L 185 129 Z M 185 112.5 " clip-rule="nonzero"/></clipPath><clipPath id="5d30af4a5c"><path d="M 199 112.5 L 205 112.5 L 205 129 L 199 129 Z M 199 112.5 " clip-rule="nonzero"/></clipPath><clipPath id="a9c5aebef2"><path d="M 214 112.5 L 220 112.5 L 220 129 L 214 129 Z M 214 112.5 " clip-rule="nonzero"/></clipPath><clipPath id="d5160d173a"><path d="M 229 112.5 L 234 112.5 L 234 129 L 229 129 Z M 229 112.5 " clip-rule="nonzero"/></clipPath><clipPath id="712427c7d9"><path d="M 246 141 L 262.5 141 L 262.5 146 L 246 146 Z M 246 141 " clip-rule="nonzero"/></clipPath><clipPath id="8c7a19bc97"><path d="M 246 155 L 262.5 155 L 262.5 161 L 246 161 Z M 246 155 " clip-rule="nonzero"/></clipPath><clipPath id="2ae90c9a67"><path d="M 246 170 L 262.5 170 L 262.5 176 L 246 176 Z M 246 170 " clip-rule="nonzero"/></clipPath><clipPath id="e8eac08ba8"><path d="M 246 185 L 262.5 185 L 262.5 190 L 246 190 Z M 246 185 " clip-rule="nonzero"/></clipPath><clipPath id="ec8c3b062d"><path d="M 246 199 L 262.5 199 L 262.5 205 L 246 205 Z M 246 199 " clip-rule="nonzero"/></clipPath><clipPath id="b0fedcc541"><path d="M 246 214 L 262.5 214 L 262.5 220 L 246 220 Z M 246 214 " clip-rule="nonzero"/></clipPath><clipPath id="ef5ad6482c"><path d="M 246 229 L 262.5 229 L 262.5 234 L 246 234 Z M 246 229 " clip-rule="nonzero"/></clipPath><clipPath id="8dfc0782d5"><path d="M 141 246 L 146 246 L 146 262.5 L 141 262.5 Z M 141 246 " clip-rule="nonzero"/></clipPath><clipPath id="69474e1cf9"><path d="M 155 246 L 161 246 L 161 262.5 L 155 262.5 Z M 155 246 " clip-rule="nonzero"/></clipPath><clipPath id="900296992a"><path d="M 170 246 L 176 246 L 176 262.5 L 170 262.5 Z M 170 246 " clip-rule="nonzero"/></clipPath><clipPath id="fdfcbc9802"><path d="M 185 246 L 190 246 L 190 262.5 L 185 262.5 Z M 185 246 " clip-rule="nonzero"/></clipPath><clipPath id="c2b849ad40"><path d="M 199 246 L 205 246 L 205 262.5 L 199 262.5 Z M 199 246 " clip-rule="nonzero"/></clipPath><clipPath id="4029bf3780"><path d="M 214 246 L 220 246 L 220 262.5 L 214 262.5 Z M 214 246 " clip-rule="nonzero"/></clipPath><clipPath id="f568c56908"><path d="M 229 246 L 234 246 L 234 262.5 L 229 262.5 Z M 229 246 " clip-rule="nonzero"/></clipPath><clipPath id="6fc88d3c77"><path d="M 112.5 141 L 129 141 L 129 146 L 112.5 146 Z M 112.5 141 " clip-rule="nonzero"/></clipPath><clipPath id="4a3baf0358"><path d="M 112.5 155 L 129 155 L 129 161 L 112.5 161 Z M 112.5 155 " clip-rule="nonzero"/></clipPath><clipPath id="74366f2a8d"><path d="M 112.5 170 L 129 170 L 129 176 L 112.5 176 Z M 112.5 170 " clip-rule="nonzero"/></clipPath><clipPath id="fdf41e27f1"><path d="M 112.5 185 L 129 185 L 129 190 L 112.5 190 Z M 112.5 185 " clip-rule="nonzero"/></clipPath><clipPath id="7559a58f3e"><path d="M 112.5 199 L 129 199 L 129 205 L 112.5 205 Z M 112.5 199 " clip-rule="nonzero"/></clipPath><clipPath id="dd9eeb3b67"><path d="M 112.5 214 L 129 214 L 129 220 L 112.5 220 Z M 112.5 214 " clip-rule="nonzero"/></clipPath><clipPath id="5208f7c104"><path d="M 112.5 229 L 129 229 L 129 234 L 112.5 234 Z M 112.5 229 " clip-rule="nonzero"/></clipPath></defs><g clip-path="url(#f1de7a1dce)"><path fill="#5b8ae6" d="M 141.105469 128.640625 L 141.105469 114.761719 C 141.105469 113.515625 142.117188 112.503906 143.363281 112.503906 C 144.613281 112.503906 145.625 113.515625 145.625 114.761719 L 145.625 128.640625 Z M 141.105469 128.640625 " fill-opacity="1" fill-rule="evenodd"/></g><g clip-path="url(#f35ebe4a7c)"><path fill="#5b8ae6" d="M 155.792969 128.640625 L 155.792969 114.761719 C 155.792969 113.515625 156.804688 112.503906 158.054688 112.503906 C 159.300781 112.503906 160.3125 113.515625 160.3125 114.761719 L 160.3125 128.640625 Z M 155.792969 128.640625 " fill-opacity="1" fill-rule="evenodd"/></g><g clip-path="url(#1274755a84)"><path fill="#5b8ae6" d="M 170.515625 128.640625 L 170.515625 114.761719 C 170.515625 113.515625 171.527344 112.503906 172.777344 112.503906 C 174.023438 112.503906 175.035156 113.515625 175.035156 114.761719 L 175.035156 128.640625 Z M 170.515625 128.640625 " fill-opacity="1" fill-rule="evenodd"/></g><g clip-path="url(#90be148e3b)"><path fill="#5b8ae6" d="M 185.203125 128.640625 L 185.203125 114.761719 C 185.203125 113.515625 186.214844 112.503906 187.464844 112.503906 C 188.710938 112.503906 189.722656 113.515625 189.722656 114.761719 L 189.722656 128.640625 Z M 185.203125 128.640625 " fill-opacity="1" fill-rule="evenodd"/></g><g clip-path="url(#5d30af4a5c)"><path fill="#5b8ae6" d="M 199.925781 128.640625 L 199.925781 114.761719 C 199.925781 113.515625 200.9375 112.503906 202.1875 112.503906 C 203.433594 112.503906 204.445312 113.515625 204.445312 114.761719 L 204.445312 128.640625 Z M 199.925781 128.640625 " fill-opacity="1" fill-rule="evenodd"/></g><g clip-path="url(#a9c5aebef2)"><path fill="#5b8ae6" d="M 214.617188 128.640625 L 214.617188 114.761719 C 214.617188 113.515625 215.628906 112.503906 216.878906 112.503906 C 218.125 112.503906 219.140625 113.515625 219.140625 114.761719 L 219.140625 128.640625 Z M 214.617188 128.640625 " fill-opacity="1" fill-rule="evenodd"/></g><g clip-path="url(#d5160d173a)"><path fill="#5b8ae6" d="M 229.339844 128.640625 L 229.339844 114.761719 C 229.339844 113.515625 230.351562 112.503906 231.601562 112.503906 C 232.847656 112.503906 233.863281 113.515625 233.863281 114.761719 L 233.863281 128.640625 Z M 229.339844 128.640625 " fill-opacity="1" fill-rule="evenodd"/></g><g clip-path="url(#712427c7d9)"><path fill="#5b8ae6" d="M 260.238281 145.628906 L 246.328125 145.628906 L 246.328125 141.066406 L 260.238281 141.066406 C 261.488281 141.066406 262.5 142.078125 262.5 143.328125 C 262.5 144.617188 261.488281 145.628906 260.238281 145.628906 Z M 260.238281 145.628906 " fill-opacity="1" fill-rule="evenodd"/></g><g clip-path="url(#8c7a19bc97)"><path fill="#5b8ae6" d="M 260.238281 160.351562 L 246.328125 160.351562 L 246.328125 155.789062 L 260.238281 155.789062 C 261.488281 155.789062 262.5 156.800781 262.5 158.050781 C 262.5 159.335938 261.488281 160.351562 260.238281 160.351562 Z M 260.238281 160.351562 " fill-opacity="1" fill-rule="evenodd"/></g><g clip-path="url(#2ae90c9a67)"><path fill="#5b8ae6" d="M 260.238281 175.039062 L 246.328125 175.039062 L 246.328125 170.476562 L 260.238281 170.476562 C 261.488281 170.476562 262.5 171.492188 262.5 172.738281 C 262.5 174.027344 261.488281 175.039062 260.238281 175.039062 Z M 260.238281 175.039062 " fill-opacity="1" fill-rule="evenodd"/></g><g clip-path="url(#e8eac08ba8)"><path fill="#5b8ae6" d="M 260.238281 189.761719 L 246.328125 189.761719 L 246.328125 185.199219 L 260.238281 185.199219 C 261.488281 185.199219 262.5 186.214844 262.5 187.460938 C 262.5 188.75 261.488281 189.761719 260.238281 189.761719 Z M 260.238281 189.761719 " fill-opacity="1" fill-rule="evenodd"/></g><g clip-path="url(#ec8c3b062d)"><path fill="#5b8ae6" d="M 260.238281 204.453125 L 246.328125 204.453125 L 246.328125 199.894531 L 260.238281 199.894531 C 261.488281 199.894531 262.5 200.90625 262.5 202.152344 C 262.5 203.4375 261.488281 204.453125 260.238281 204.453125 Z M 260.238281 204.453125 " fill-opacity="1" fill-rule="evenodd"/></g><g clip-path="url(#b0fedcc541)"><path fill="#5b8ae6" d="M 260.238281 219.175781 L 246.328125 219.175781 L 246.328125 214.617188 L 260.238281 214.617188 C 261.488281 214.617188 262.5 215.628906 262.5 216.875 C 262.5 218.164062 261.488281 219.175781 260.238281 219.175781 Z M 260.238281 219.175781 " fill-opacity="1" fill-rule="evenodd"/></g><g clip-path="url(#ef5ad6482c)"><path fill="#5b8ae6" d="M 260.238281 233.863281 L 246.328125 233.863281 L 246.328125 229.304688 L 260.238281 229.304688 C 261.488281 229.304688 262.5 230.316406 262.5 231.5625 C 262.5 232.851562 261.488281 233.863281 260.238281 233.863281 Z M 260.238281 233.863281 " fill-opacity="1" fill-rule="evenodd"/></g><g clip-path="url(#8dfc0782d5)"><path fill="#5b8ae6" d="M 143.363281 262.496094 C 142.117188 262.496094 141.105469 261.484375 141.105469 260.238281 L 141.105469 246.359375 L 145.664062 246.359375 L 145.664062 260.238281 C 145.660156 261.484375 144.613281 262.496094 143.363281 262.496094 Z M 143.363281 262.496094 " fill-opacity="1" fill-rule="evenodd"/></g><g clip-path="url(#69474e1cf9)"><path fill="#5b8ae6" d="M 158.085938 262.496094 C 156.839844 262.496094 155.828125 261.484375 155.828125 260.238281 L 155.828125 246.359375 L 160.386719 246.359375 L 160.386719 260.238281 C 160.351562 261.484375 159.335938 262.496094 158.085938 262.496094 Z M 158.085938 262.496094 " fill-opacity="1" fill-rule="evenodd"/></g><g clip-path="url(#900296992a)"><path fill="#5b8ae6" d="M 172.777344 262.496094 C 171.527344 262.496094 170.515625 261.484375 170.515625 260.238281 L 170.515625 246.359375 L 175.074219 246.359375 L 175.074219 260.238281 C 175.039062 261.484375 174.027344 262.496094 172.777344 262.496094 Z M 172.777344 262.496094 " fill-opacity="1" fill-rule="evenodd"/></g><g clip-path="url(#fdfcbc9802)"><path fill="#5b8ae6" d="M 187.503906 262.496094 C 186.253906 262.496094 185.242188 261.484375 185.242188 260.238281 L 185.242188 246.359375 L 189.765625 246.359375 L 189.765625 260.238281 C 189.761719 261.484375 188.75 262.496094 187.503906 262.496094 Z M 187.503906 262.496094 " fill-opacity="1" fill-rule="evenodd"/></g><g clip-path="url(#c2b849ad40)"><path fill="#5b8ae6" d="M 202.191406 262.496094 C 200.941406 262.496094 199.929688 261.484375 199.929688 260.238281 L 199.929688 246.359375 L 204.488281 246.359375 L 204.488281 260.238281 C 204.449219 261.484375 203.4375 262.496094 202.191406 262.496094 Z M 202.191406 262.496094 " fill-opacity="1" fill-rule="evenodd"/></g><g clip-path="url(#4029bf3780)"><path fill="#5b8ae6" d="M 216.914062 262.496094 C 215.664062 262.496094 214.652344 261.484375 214.652344 260.238281 L 214.652344 246.359375 L 219.207031 246.359375 L 219.207031 260.238281 C 219.171875 261.484375 218.160156 262.496094 216.914062 262.496094 Z M 216.914062 262.496094 " fill-opacity="1" fill-rule="evenodd"/></g><g clip-path="url(#f568c56908)"><path fill="#5b8ae6" d="M 231.601562 262.496094 C 230.351562 262.496094 229.339844 261.484375 229.339844 260.238281 L 229.339844 246.359375 L 233.898438 246.359375 L 233.898438 260.238281 C 233.867188 261.484375 232.851562 262.496094 231.601562 262.496094 Z M 231.601562 262.496094 " fill-opacity="1" fill-rule="evenodd"/></g><g clip-path="url(#6fc88d3c77)"><path fill="#5b8ae6" d="M 128.640625 145.628906 L 114.761719 145.628906 C 113.511719 145.628906 112.5 144.617188 112.5 143.367188 C 112.5 142.117188 113.511719 141.105469 114.761719 141.105469 L 128.671875 141.105469 L 128.671875 145.632812 L 128.640625 145.632812 Z M 128.640625 145.628906 " fill-opacity="1" fill-rule="evenodd"/></g><g clip-path="url(#4a3baf0358)"><path fill="#5b8ae6" d="M 128.640625 160.351562 L 114.761719 160.351562 C 113.511719 160.351562 112.5 159.335938 112.5 158.089844 C 112.5 156.839844 113.511719 155.828125 114.761719 155.828125 L 128.671875 155.828125 L 128.671875 160.355469 L 128.640625 160.355469 Z M 128.640625 160.351562 " fill-opacity="1" fill-rule="evenodd"/></g><g clip-path="url(#74366f2a8d)"><path fill="#5b8ae6" d="M 128.640625 175.039062 L 114.761719 175.039062 C 113.511719 175.039062 112.5 174.027344 112.5 172.777344 C 112.5 171.527344 113.511719 170.515625 114.761719 170.515625 L 128.671875 170.515625 L 128.671875 175.042969 L 128.640625 175.042969 Z M 128.640625 175.039062 " fill-opacity="1" fill-rule="evenodd"/></g><g clip-path="url(#fdf41e27f1)"><path fill="#5b8ae6" d="M 128.640625 189.761719 L 114.761719 189.761719 C 113.511719 189.761719 112.5 188.75 112.5 187.5 C 112.5 186.25 113.511719 185.238281 114.761719 185.238281 L 128.671875 185.238281 L 128.671875 189.765625 L 128.640625 189.765625 Z M 128.640625 189.761719 " fill-opacity="1" fill-rule="evenodd"/></g><g clip-path="url(#7559a58f3e)"><path fill="#5b8ae6" d="M 128.640625 204.453125 L 114.761719 204.453125 C 113.511719 204.453125 112.5 203.441406 112.5 202.191406 C 112.5 200.945312 113.511719 199.933594 114.761719 199.933594 L 128.671875 199.933594 L 128.671875 204.453125 Z M 128.640625 204.453125 " fill-opacity="1" fill-rule="evenodd"/></g><g clip-path="url(#dd9eeb3b67)"><path fill="#5b8ae6" d="M 128.640625 219.175781 L 114.761719 219.175781 C 113.511719 219.175781 112.5 218.164062 112.5 216.914062 C 112.5 215.667969 113.511719 214.652344 114.761719 214.652344 L 128.671875 214.652344 L 128.671875 219.179688 L 128.640625 219.179688 Z M 128.640625 219.175781 " fill-opacity="1" fill-rule="evenodd"/></g><g clip-path="url(#5208f7c104)"><path fill="#5b8ae6" d="M 128.640625 233.863281 L 114.761719 233.863281 C 113.511719 233.863281 112.5 232.851562 112.5 231.601562 C 112.5 230.355469 113.511719 229.34375 114.761719 229.34375 L 128.671875 229.34375 L 128.671875 233.867188 L 128.640625 233.867188 Z M 128.640625 233.863281 " fill-opacity="1" fill-rule="evenodd"/></g><path fill="#5b8ae6" d="M 210.398438 182.808594 C 210.398438 183.75 212.761719 184.597656 214.6875 185.273438 C 217.828125 186.390625 222.117188 187.90625 222.117188 192.195312 C 222.117188 195.878906 218.539062 198.746094 213.980469 198.746094 C 209.417969 198.746094 205.839844 195.878906 205.839844 192.195312 C 205.839844 190.949219 206.851562 189.9375 208.101562 189.9375 C 209.351562 189.9375 210.363281 190.949219 210.363281 192.195312 C 210.363281 193.140625 211.878906 194.1875 213.941406 194.1875 C 216 194.1875 217.515625 193.140625 217.515625 192.195312 C 217.515625 191.21875 215.589844 190.441406 213.128906 189.5625 C 210.058594 188.480469 205.835938 186.964844 205.835938 182.8125 C 205.835938 179.164062 209.414062 176.296875 213.972656 176.296875 C 218.535156 176.296875 222.113281 179.164062 222.113281 182.8125 C 222.113281 184.058594 221.097656 185.070312 219.851562 185.070312 C 218.601562 185.070312 217.589844 184.058594 217.589844 182.8125 C 217.589844 181.898438 216.039062 180.851562 214.011719 180.851562 C 211.949219 180.847656 210.398438 181.859375 210.398438 182.808594 Z M 193.511719 176.257812 C 198.917969 176.257812 203.304688 181.289062 203.304688 187.464844 C 203.304688 193.644531 198.917969 198.675781 193.511719 198.675781 C 188.105469 198.675781 183.71875 193.644531 183.71875 187.464844 C 183.71875 181.289062 188.105469 176.257812 193.511719 176.257812 Z M 230.117188 169.195312 L 144.847656 169.195312 L 144.847656 205.765625 L 230.117188 205.765625 Z M 179.769531 180.8125 L 179.769531 194.148438 L 181.050781 194.148438 C 182.296875 194.148438 183.3125 195.160156 183.3125 196.410156 C 183.3125 197.65625 182.296875 198.671875 181.050781 198.671875 L 173.894531 198.671875 C 172.648438 198.671875 171.632812 197.65625 171.632812 196.410156 C 171.632812 195.160156 172.648438 194.148438 173.894531 194.148438 L 175.210938 194.148438 L 175.210938 180.8125 L 173.894531 180.8125 C 172.648438 180.8125 171.632812 179.800781 171.632812 178.550781 C 171.632812 177.304688 172.648438 176.289062 173.894531 176.289062 L 181.050781 176.289062 C 182.296875 176.289062 183.3125 177.304688 183.3125 178.550781 C 183.3125 179.800781 182.296875 180.8125 181.050781 180.8125 Z M 169.773438 191.921875 C 169.773438 195.636719 166.734375 198.675781 163.019531 198.675781 L 155.117188 198.675781 C 153.871094 198.675781 152.859375 197.664062 152.859375 196.414062 L 152.859375 178.515625 C 152.859375 177.269531 153.871094 176.257812 155.117188 176.257812 L 160.824219 176.257812 C 166.023438 176.257812 168.726562 179.667969 168.726562 183.007812 C 168.726562 184.359375 168.289062 185.675781 167.441406 186.828125 C 168.859375 188.074219 169.773438 189.898438 169.773438 191.921875 Z M 169.773438 191.921875 " fill-opacity="1" fill-rule="evenodd"/><path fill="#535353" d="M 133.199219 133.164062 L 133.199219 241.765625 L 241.796875 241.765625 L 241.796875 133.164062 Z M 142.589844 164.640625 L 232.410156 164.640625 C 233.660156 164.640625 234.671875 165.652344 234.671875 166.902344 L 234.671875 207.996094 C 234.671875 209.246094 233.660156 210.257812 232.410156 210.257812 L 142.589844 210.257812 C 141.339844 210.257812 140.328125 209.246094 140.328125 207.996094 L 140.328125 166.902344 C 140.324219 165.652344 141.339844 164.640625 142.589844 164.640625 Z M 142.589844 164.640625 " fill-opacity="1" fill-rule="evenodd"/><path fill="#5b8ae6" d="M 193.511719 180.8125 C 190.609375 180.8125 188.246094 183.820312 188.246094 187.5 C 188.246094 191.179688 190.609375 194.1875 193.511719 194.1875 C 196.417969 194.1875 198.78125 191.179688 198.78125 187.5 C 198.78125 183.785156 196.417969 180.8125 193.511719 180.8125 Z M 193.511719 180.8125 " fill-opacity="1" fill-rule="evenodd"/><path fill="#5b8ae6" d="M 157.378906 189.761719 L 157.378906 194.148438 L 163.019531 194.148438 C 164.234375 194.148438 165.25 193.136719 165.25 191.917969 C 165.25 190.699219 164.238281 189.6875 163.019531 189.6875 L 161.667969 189.6875 C 161.398438 189.722656 161.09375 189.722656 160.824219 189.722656 L 157.378906 189.722656 Z M 157.378906 189.761719 " fill-opacity="1" fill-rule="evenodd"/><path fill="#5b8ae6" d="M 160.789062 180.8125 L 157.378906 180.8125 L 157.378906 185.167969 L 161.46875 185.167969 C 163.324219 184.964844 164.171875 183.980469 164.171875 183.003906 C 164.164062 181.894531 163.121094 180.8125 160.789062 180.8125 Z M 160.789062 180.8125 " fill-opacity="1" fill-rule="evenodd"/></svg>