<svg xmlns="http://www.w3.org/2000/svg" xmlns:xlink="http://www.w3.org/1999/xlink" width="500" zoomAndPan="magnify" viewBox="0 0 375 374.999991" height="500" preserveAspectRatio="xMidYMid meet" version="1.0"><defs><clipPath id="6f87805fd6"><path d="M 139 138 L 232 138 L 232 234 L 139 234 Z M 139 138 " clip-rule="nonzero"/></clipPath><clipPath id="a645ebd4bd"><path d="M 206.175781 229.128906 L 206.175781 232.164062 C 206.175781 232.957031 205.527344 233.605469 204.734375 233.605469 L 166.707031 233.605469 C 165.910156 233.605469 165.265625 232.957031 165.265625 232.164062 L 165.265625 229.128906 C 165.265625 226.65625 167.273438 224.648438 169.746094 224.648438 L 201.695312 224.648438 C 204.164062 224.652344 206.175781 226.660156 206.175781 229.128906 Z M 196.726562 209.125 L 174.71875 209.125 L 174.71875 222.355469 L 196.726562 222.355469 Z M 185.71875 176.667969 C 185.390625 176.667969 185.125 176.933594 185.125 177.265625 C 185.125 177.59375 185.386719 177.859375 185.71875 177.859375 C 186.050781 177.859375 186.316406 177.597656 186.316406 177.265625 C 186.316406 176.933594 186.046875 176.667969 185.71875 176.667969 Z M 193.597656 172.039062 L 193.597656 185.964844 C 193.597656 186.753906 192.957031 187.394531 192.167969 187.394531 L 179.273438 187.394531 C 178.484375 187.394531 177.84375 186.75 177.84375 185.964844 L 177.84375 172.039062 C 177.84375 171.253906 178.488281 170.609375 179.273438 170.609375 L 192.15625 170.609375 C 192.957031 170.605469 193.597656 171.25 193.597656 172.039062 Z M 188.609375 177.261719 C 188.609375 175.667969 187.316406 174.375 185.71875 174.375 C 184.128906 174.375 182.832031 175.667969 182.832031 177.261719 C 182.832031 178.445312 183.546875 179.46875 184.570312 179.914062 L 184.570312 182.488281 C 184.570312 183.121094 185.085938 183.636719 185.71875 183.636719 C 186.355469 183.636719 186.867188 183.121094 186.867188 182.488281 L 186.867188 179.917969 C 187.890625 179.46875 188.609375 178.449219 188.609375 177.261719 Z M 190.890625 162.625 C 190.890625 159.773438 188.570312 157.453125 185.71875 157.453125 C 182.871094 157.453125 180.546875 159.773438 180.546875 162.625 L 180.546875 168.3125 L 190.890625 168.3125 Z M 201.722656 151.171875 L 206.972656 151.171875 L 206.972656 193.664062 L 164.464844 193.664062 L 164.464844 151.171875 Z M 195.890625 185.964844 L 195.890625 172.039062 C 195.890625 170.335938 194.746094 168.894531 193.183594 168.453125 L 193.183594 162.628906 C 193.183594 158.511719 189.835938 155.164062 185.71875 155.164062 C 181.601562 155.164062 178.257812 158.511719 178.257812 162.628906 L 178.257812 168.453125 C 176.699219 168.898438 175.550781 170.335938 175.550781 172.039062 L 175.550781 185.964844 C 175.550781 188.015625 177.222656 189.691406 179.277344 189.691406 L 192.171875 189.691406 C 194.222656 189.691406 195.890625 188.015625 195.890625 185.964844 Z M 231.945312 141.148438 L 231.945312 203.703125 C 231.945312 205.429688 230.539062 206.835938 228.8125 206.835938 L 142.628906 206.835938 C 140.90625 206.835938 139.5 205.429688 139.5 203.703125 L 139.5 141.148438 C 139.5 139.425781 140.90625 138.019531 142.628906 138.019531 L 228.8125 138.019531 C 230.539062 138.019531 231.945312 139.425781 231.945312 141.148438 Z M 209.265625 155.277344 L 209.265625 151.175781 L 215.070312 151.175781 C 215.703125 151.175781 216.21875 150.664062 216.21875 150.027344 C 216.21875 149.390625 215.707031 148.878906 215.070312 148.878906 L 209.265625 148.878906 L 209.265625 143.078125 C 209.265625 142.441406 208.753906 141.925781 208.117188 141.925781 C 207.480469 141.925781 206.96875 142.441406 206.96875 143.078125 L 206.96875 148.878906 L 202.867188 148.878906 L 202.867188 143.078125 C 202.867188 142.441406 202.355469 141.925781 201.71875 141.925781 C 201.082031 141.925781 200.570312 142.441406 200.570312 143.078125 L 200.570312 148.878906 L 196.464844 148.878906 L 196.464844 143.078125 C 196.464844 142.441406 195.953125 141.925781 195.316406 141.925781 C 194.679688 141.925781 194.167969 142.441406 194.167969 143.078125 L 194.167969 148.878906 L 190.058594 148.878906 L 190.058594 143.078125 C 190.058594 142.441406 189.542969 141.925781 188.910156 141.925781 C 188.277344 141.925781 187.761719 142.441406 187.761719 143.078125 L 187.761719 148.878906 L 183.65625 148.878906 L 183.65625 143.078125 C 183.65625 142.441406 183.140625 141.925781 182.507812 141.925781 C 181.871094 141.925781 181.359375 142.441406 181.359375 143.078125 L 181.359375 148.878906 L 177.253906 148.878906 L 177.253906 143.078125 C 177.253906 142.441406 176.738281 141.925781 176.105469 141.925781 C 175.472656 141.925781 174.957031 142.441406 174.957031 143.078125 L 174.957031 148.878906 L 170.851562 148.878906 L 170.851562 143.078125 C 170.851562 142.441406 170.335938 141.925781 169.703125 141.925781 C 169.066406 141.925781 168.550781 142.441406 168.550781 143.078125 L 168.550781 148.878906 L 164.449219 148.878906 L 164.449219 143.078125 C 164.449219 142.441406 163.933594 141.925781 163.296875 141.925781 C 162.664062 141.925781 162.148438 142.441406 162.148438 143.078125 L 162.148438 148.878906 L 156.359375 148.878906 C 155.722656 148.878906 155.210938 149.386719 155.210938 150.027344 C 155.210938 150.664062 155.722656 151.175781 156.359375 151.175781 L 162.160156 151.175781 L 162.160156 155.28125 L 156.359375 155.28125 C 155.722656 155.28125 155.210938 155.792969 155.210938 156.429688 C 155.210938 157.066406 155.722656 157.578125 156.359375 157.578125 L 162.160156 157.578125 L 162.160156 161.683594 L 156.359375 161.683594 C 155.722656 161.683594 155.210938 162.199219 155.210938 162.832031 C 155.210938 163.46875 155.722656 163.980469 156.359375 163.980469 L 162.160156 163.980469 L 162.160156 168.085938 L 156.359375 168.085938 C 155.722656 168.085938 155.210938 168.597656 155.210938 169.234375 C 155.210938 169.871094 155.722656 170.382812 156.359375 170.382812 L 162.160156 170.382812 L 162.160156 174.488281 L 156.359375 174.488281 C 155.722656 174.488281 155.210938 175.003906 155.210938 175.636719 C 155.210938 176.273438 155.722656 176.785156 156.359375 176.785156 L 162.160156 176.785156 L 162.160156 180.894531 L 156.359375 180.894531 C 155.722656 180.894531 155.210938 181.410156 155.210938 182.042969 C 155.210938 182.679688 155.722656 183.195312 156.359375 183.195312 L 162.160156 183.195312 L 162.160156 187.296875 L 156.359375 187.296875 C 155.722656 187.296875 155.210938 187.808594 155.210938 188.449219 C 155.210938 189.082031 155.722656 189.597656 156.359375 189.597656 L 162.160156 189.597656 L 162.160156 193.703125 L 156.359375 193.703125 C 155.722656 193.703125 155.210938 194.214844 155.210938 194.851562 C 155.210938 195.484375 155.722656 196 156.359375 196 L 162.160156 196 L 162.160156 201.800781 C 162.160156 202.4375 162.671875 202.949219 163.308594 202.949219 C 163.941406 202.949219 164.460938 202.441406 164.460938 201.800781 L 164.460938 196 L 168.566406 196 L 168.566406 201.800781 C 168.566406 202.4375 169.078125 202.949219 169.714844 202.949219 C 170.34375 202.949219 170.863281 202.441406 170.863281 201.800781 L 170.863281 196 L 174.960938 196 L 174.960938 201.800781 C 174.960938 202.4375 175.472656 202.949219 176.109375 202.949219 C 176.742188 202.949219 177.257812 202.441406 177.257812 201.800781 L 177.257812 196 L 181.363281 196 L 181.363281 201.800781 C 181.363281 202.4375 181.875 202.949219 182.511719 202.949219 C 183.144531 202.949219 183.660156 202.441406 183.660156 201.800781 L 183.660156 196 L 187.765625 196 L 187.765625 201.800781 C 187.765625 202.4375 188.277344 202.949219 188.914062 202.949219 C 189.542969 202.949219 190.0625 202.441406 190.0625 201.800781 L 190.0625 196 L 194.171875 196 L 194.171875 201.800781 C 194.171875 202.4375 194.683594 202.949219 195.320312 202.949219 C 195.953125 202.949219 196.46875 202.441406 196.46875 201.800781 L 196.46875 196 L 200.574219 196 L 200.574219 201.800781 C 200.574219 202.4375 201.085938 202.949219 201.722656 202.949219 C 202.359375 202.949219 202.871094 202.441406 202.871094 201.800781 L 202.871094 196 L 206.976562 196 L 206.976562 201.800781 C 206.976562 202.4375 207.488281 202.949219 208.125 202.949219 C 208.757812 202.949219 209.273438 202.441406 209.273438 201.800781 L 209.273438 196 L 215.078125 196 C 215.710938 196 216.226562 195.484375 216.226562 194.851562 C 216.226562 194.214844 215.714844 193.703125 215.078125 193.703125 L 209.273438 193.703125 L 209.273438 189.597656 L 215.078125 189.597656 C 215.710938 189.597656 216.226562 189.082031 216.226562 188.449219 C 216.226562 187.8125 215.714844 187.296875 215.078125 187.296875 L 209.273438 187.296875 L 209.273438 183.1875 L 215.078125 183.1875 C 215.710938 183.1875 216.226562 182.675781 216.226562 182.039062 C 216.226562 181.410156 215.714844 180.890625 215.078125 180.890625 L 209.273438 180.890625 L 209.273438 176.785156 L 215.078125 176.785156 C 215.710938 176.785156 216.226562 176.273438 216.226562 175.636719 C 216.226562 175.003906 215.714844 174.488281 215.078125 174.488281 L 209.273438 174.488281 L 209.273438 170.375 L 215.078125 170.375 C 215.710938 170.375 216.226562 169.863281 216.226562 169.226562 C 216.226562 168.59375 215.714844 168.078125 215.078125 168.078125 L 209.273438 168.078125 L 209.273438 163.972656 L 215.078125 163.972656 C 215.710938 163.972656 216.226562 163.460938 216.226562 162.824219 C 216.226562 162.191406 215.714844 161.675781 215.078125 161.675781 L 209.273438 161.675781 L 209.273438 157.574219 L 215.078125 157.574219 C 215.710938 157.574219 216.226562 157.0625 216.226562 156.425781 C 216.226562 155.789062 215.714844 155.277344 215.078125 155.277344 Z M 209.265625 155.277344 " clip-rule="evenodd"/></clipPath><linearGradient x1="907.592013" gradientTransform="matrix(0.0394737, 0, 0, 0.0394737, 109.081583, 148.440106)" y1="-400.97502" x2="3289.291295" gradientUnits="userSpaceOnUse" y2="1980.725593" id="6354274f40"><stop stop-opacity="1" stop-color="rgb(85.499573%, 26.298523%, 15.699768%)" offset="0"/><stop stop-opacity="1" stop-color="rgb(85.53009%, 26.367188%, 15.666199%)" offset="0.015625"/><stop stop-opacity="1" stop-color="rgb(85.644531%, 26.620483%, 15.54718%)" offset="0.03125"/><stop stop-opacity="1" stop-color="rgb(85.809326%, 26.989746%, 15.374756%)" offset="0.046875"/><stop stop-opacity="1" stop-color="rgb(85.975647%, 27.357483%, 15.200806%)" offset="0.0625"/><stop stop-opacity="1" stop-color="rgb(86.140442%, 27.72522%, 15.028381%)" offset="0.078125"/><stop stop-opacity="1" stop-color="rgb(86.306763%, 28.094482%, 14.854431%)" offset="0.09375"/><stop stop-opacity="1" stop-color="rgb(86.471558%, 28.462219%, 14.682007%)" offset="0.109375"/><stop stop-opacity="1" stop-color="rgb(86.637878%, 28.829956%, 14.509583%)" offset="0.125"/><stop stop-opacity="1" stop-color="rgb(86.804199%, 29.199219%, 14.335632%)" offset="0.140625"/><stop stop-opacity="1" stop-color="rgb(86.968994%, 29.566956%, 14.163208%)" offset="0.15625"/><stop stop-opacity="1" stop-color="rgb(87.135315%, 29.934692%, 13.989258%)" offset="0.171875"/><stop stop-opacity="1" stop-color="rgb(87.30011%, 30.302429%, 13.816833%)" offset="0.1875"/><stop stop-opacity="1" stop-color="rgb(87.466431%, 30.671692%, 13.644409%)" offset="0.203125"/><stop stop-opacity="1" stop-color="rgb(87.632751%, 31.039429%, 13.470459%)" offset="0.21875"/><stop stop-opacity="1" stop-color="rgb(87.797546%, 31.407166%, 13.298035%)" offset="0.234375"/><stop stop-opacity="1" stop-color="rgb(87.963867%, 31.776428%, 13.124084%)" offset="0.25"/><stop stop-opacity="1" stop-color="rgb(88.128662%, 32.144165%, 12.95166%)" offset="0.265625"/><stop stop-opacity="1" stop-color="rgb(88.294983%, 32.511902%, 12.77771%)" offset="0.28125"/><stop stop-opacity="1" stop-color="rgb(88.461304%, 32.881165%, 12.605286%)" offset="0.296875"/><stop stop-opacity="1" stop-color="rgb(88.626099%, 33.248901%, 12.432861%)" offset="0.3125"/><stop stop-opacity="1" stop-color="rgb(88.792419%, 33.616638%, 12.258911%)" offset="0.328125"/><stop stop-opacity="1" stop-color="rgb(88.957214%, 33.984375%, 12.086487%)" offset="0.34375"/><stop stop-opacity="1" stop-color="rgb(89.123535%, 34.353638%, 11.912537%)" offset="0.359375"/><stop stop-opacity="1" stop-color="rgb(89.28833%, 34.721375%, 11.740112%)" offset="0.375"/><stop stop-opacity="1" stop-color="rgb(89.454651%, 35.089111%, 11.567688%)" offset="0.390625"/><stop stop-opacity="1" stop-color="rgb(89.620972%, 35.458374%, 11.393738%)" offset="0.40625"/><stop stop-opacity="1" stop-color="rgb(89.785767%, 35.826111%, 11.221313%)" offset="0.421875"/><stop stop-opacity="1" stop-color="rgb(89.952087%, 36.193848%, 11.047363%)" offset="0.4375"/><stop stop-opacity="1" stop-color="rgb(90.116882%, 36.56311%, 10.874939%)" offset="0.453125"/><stop stop-opacity="1" stop-color="rgb(90.283203%, 36.930847%, 10.700989%)" offset="0.46875"/><stop stop-opacity="1" stop-color="rgb(90.449524%, 37.298584%, 10.528564%)" offset="0.484375"/><stop stop-opacity="1" stop-color="rgb(90.614319%, 37.667847%, 10.35614%)" offset="0.491644"/><stop stop-opacity="1" stop-color="rgb(90.698242%, 37.852478%, 10.269165%)" offset="0.5"/><stop stop-opacity="1" stop-color="rgb(90.78064%, 38.035583%, 10.18219%)" offset="0.508356"/><stop stop-opacity="1" stop-color="rgb(90.863037%, 38.220215%, 10.096741%)" offset="0.515625"/><stop stop-opacity="1" stop-color="rgb(90.945435%, 38.40332%, 10.009766%)" offset="0.53125"/><stop stop-opacity="1" stop-color="rgb(91.111755%, 38.771057%, 9.835815%)" offset="0.546875"/><stop stop-opacity="1" stop-color="rgb(91.278076%, 39.14032%, 9.663391%)" offset="0.5625"/><stop stop-opacity="1" stop-color="rgb(91.442871%, 39.508057%, 9.490967%)" offset="0.578125"/><stop stop-opacity="1" stop-color="rgb(91.609192%, 39.875793%, 9.317017%)" offset="0.59375"/><stop stop-opacity="1" stop-color="rgb(91.773987%, 40.245056%, 9.144592%)" offset="0.609375"/><stop stop-opacity="1" stop-color="rgb(91.940308%, 40.612793%, 8.970642%)" offset="0.625"/><stop stop-opacity="1" stop-color="rgb(92.105103%, 40.98053%, 8.798218%)" offset="0.640625"/><stop stop-opacity="1" stop-color="rgb(92.271423%, 41.349792%, 8.625793%)" offset="0.65625"/><stop stop-opacity="1" stop-color="rgb(92.437744%, 41.717529%, 8.451843%)" offset="0.671875"/><stop stop-opacity="1" stop-color="rgb(92.602539%, 42.085266%, 8.279419%)" offset="0.6875"/><stop stop-opacity="1" stop-color="rgb(92.76886%, 42.454529%, 8.105469%)" offset="0.703125"/><stop stop-opacity="1" stop-color="rgb(92.933655%, 42.822266%, 7.933044%)" offset="0.71875"/><stop stop-opacity="1" stop-color="rgb(93.099976%, 43.190002%, 7.759094%)" offset="0.734375"/><stop stop-opacity="1" stop-color="rgb(93.266296%, 43.557739%, 7.58667%)" offset="0.75"/><stop stop-opacity="1" stop-color="rgb(93.431091%, 43.927002%, 7.414246%)" offset="0.765625"/><stop stop-opacity="1" stop-color="rgb(93.597412%, 44.294739%, 7.240295%)" offset="0.78125"/><stop stop-opacity="1" stop-color="rgb(93.762207%, 44.662476%, 7.067871%)" offset="0.796875"/><stop stop-opacity="1" stop-color="rgb(93.928528%, 45.031738%, 6.893921%)" offset="0.8125"/><stop stop-opacity="1" stop-color="rgb(94.094849%, 45.399475%, 6.721497%)" offset="0.828125"/><stop stop-opacity="1" stop-color="rgb(94.259644%, 45.767212%, 6.549072%)" offset="0.84375"/><stop stop-opacity="1" stop-color="rgb(94.421387%, 46.125793%, 6.3797%)" offset="0.875"/><stop stop-opacity="1" stop-color="rgb(94.499207%, 46.299744%, 6.298828%)" offset="1"/></linearGradient><clipPath id="5ef850a97d"><path d="M 112.5 112.5 L 262.5 112.5 L 262.5 262.5 L 112.5 262.5 Z M 112.5 112.5 " clip-rule="nonzero"/></clipPath></defs><g clip-path="url(#6f87805fd6)"><g clip-path="url(#a645ebd4bd)"><path fill="url(#6354274f40)" d="M 139.5 138.019531 L 139.5 233.605469 L 231.945312 233.605469 L 231.945312 138.019531 Z M 139.5 138.019531 " fill-rule="nonzero"/></g></g><g clip-path="url(#5ef850a97d)"><path fill="#dd4925" d="M 187.5 112.5 C 208.210938 112.5 226.960938 120.894531 240.53125 134.46875 C 254.105469 148.039062 262.5 166.789062 262.5 187.5 C 262.5 208.210938 254.109375 226.960938 240.53125 240.53125 C 226.960938 254.105469 208.210938 262.5 187.5 262.5 C 166.789062 262.5 148.042969 254.105469 134.46875 240.53125 C 120.894531 226.960938 112.5 208.210938 112.5 187.5 C 112.5 166.789062 120.894531 148.039062 134.46875 134.46875 C 148.042969 120.894531 166.792969 112.5 187.5 112.5 Z M 238.164062 136.835938 C 225.199219 123.867188 207.289062 115.851562 187.5 115.851562 C 167.710938 115.851562 149.800781 123.871094 136.839844 136.835938 C 123.871094 149.800781 115.855469 167.710938 115.855469 187.5 C 115.855469 207.289062 123.875 225.199219 136.839844 238.164062 C 149.804688 251.132812 167.714844 259.148438 187.503906 259.148438 C 207.292969 259.148438 225.203125 251.128906 238.167969 238.164062 C 251.136719 225.199219 259.152344 207.289062 259.152344 187.5 C 259.152344 167.710938 251.132812 149.800781 238.164062 136.835938 Z M 238.164062 136.835938 " fill-opacity="1" fill-rule="nonzero"/></g></svg>