<svg xmlns="http://www.w3.org/2000/svg" xmlns:xlink="http://www.w3.org/1999/xlink" width="500" zoomAndPan="magnify" viewBox="0 0 375 374.999991" height="500" preserveAspectRatio="xMidYMid meet" version="1.0"><defs><clipPath id="1fa8bd9fb4"><path d="M 122.53125 112.5 L 252.28125 112.5 L 252.28125 262.5 L 122.53125 262.5 Z M 122.53125 112.5 " clip-rule="nonzero"/></clipPath></defs><g clip-path="url(#1fa8bd9fb4)"><path fill="#00ccff" d="M 188.71875 113.277344 L 219.835938 131.269531 L 218.714844 133.222656 L 219.84375 131.265625 C 219.890625 131.289062 219.933594 131.316406 219.976562 131.347656 L 251.148438 149.371094 L 251.152344 149.367188 C 251.886719 149.789062 252.292969 150.5625 252.28125 151.355469 L 252.28125 223.734375 C 252.28125 224.628906 251.761719 225.402344 251.007812 225.769531 L 219.84375 243.789062 L 218.714844 241.835938 L 219.84375 243.792969 C 219.78125 243.828125 219.71875 243.863281 219.65625 243.890625 L 188.53125 261.886719 L 188.535156 261.894531 C 187.746094 262.351562 186.792969 262.277344 186.09375 261.78125 L 154.976562 243.789062 L 156.097656 241.835938 L 154.96875 243.792969 C 154.921875 243.769531 154.878906 243.742188 154.835938 243.710938 L 123.664062 225.6875 L 123.660156 225.691406 C 122.925781 225.269531 122.519531 224.496094 122.53125 223.703125 L 122.53125 151.324219 C 122.53125 150.429688 123.050781 149.65625 123.804688 149.289062 L 154.96875 131.269531 L 156.097656 133.222656 L 154.96875 131.265625 C 155.03125 131.230469 155.09375 131.195312 155.15625 131.167969 L 186.28125 113.171875 L 186.277344 113.164062 C 187.066406 112.707031 188.019531 112.78125 188.71875 113.277344 Z M 217.585938 135.171875 L 187.40625 117.722656 L 157.40625 135.070312 C 157.347656 135.109375 157.289062 135.148438 157.226562 135.183594 L 157.226562 135.179688 L 127.050781 152.625 L 127.050781 222.433594 L 157.089844 239.800781 C 157.136719 239.824219 157.183594 239.847656 157.226562 239.875 L 157.226562 239.886719 L 187.40625 257.335938 L 217.40625 239.988281 C 217.464844 239.949219 217.523438 239.910156 217.585938 239.875 L 217.585938 239.878906 L 247.761719 222.433594 L 247.761719 152.625 L 217.722656 135.257812 C 217.675781 135.234375 217.628906 135.210938 217.585938 135.183594 Z M 217.585938 135.171875 " fill-opacity="1" fill-rule="nonzero"/></g><path fill="#00ccff" d="M 211.0625 197.734375 L 211.0625 163.722656 L 203.648438 163.722656 L 203.648438 158.703125 L 216.074219 158.703125 L 216.074219 197.734375 Z M 211.0625 197.734375 " fill-opacity="1" fill-rule="nonzero"/><path fill="#00ccff" d="M 157.886719 197.734375 L 157.886719 158.703125 L 170.207031 158.703125 L 170.207031 163.722656 L 162.898438 163.722656 L 162.898438 197.734375 Z M 157.886719 197.734375 " fill-opacity="1" fill-rule="nonzero"/><path fill="#00ccff" d="M 170.554688 149.6875 L 203.300781 149.6875 C 204.375 149.6875 205.25 150.566406 205.25 151.640625 L 205.25 170.035156 C 205.25 171.109375 204.375 171.988281 203.300781 171.988281 L 170.554688 171.988281 C 169.480469 171.988281 168.601562 171.109375 168.601562 170.035156 L 168.601562 151.640625 C 168.601562 150.566406 169.480469 149.6875 170.554688 149.6875 Z M 172.128906 152.75 L 201.726562 152.75 L 201.726562 168.925781 L 172.128906 168.925781 Z M 172.128906 152.75 " fill-opacity="1" fill-rule="evenodd"/><path fill="#00ccff" d="M 189.683594 170.867188 L 184.171875 170.867188 L 184.542969 175.367188 L 184.691406 176.734375 L 189.164062 176.734375 L 189.3125 175.367188 Z M 189.683594 170.867188 " fill-opacity="1" fill-rule="evenodd"/><path fill="#00ccff" d="M 194.769531 177.304688 C 194.769531 176.558594 193.21875 175.90625 190.90625 175.550781 L 190.601562 177.753906 L 183.253906 177.753906 L 182.949219 175.550781 C 180.636719 175.90625 179.085938 176.558594 179.085938 177.304688 C 179.085938 178.429688 182.597656 179.339844 186.925781 179.339844 C 191.257812 179.339844 194.769531 178.429688 194.769531 177.304688 Z M 194.769531 177.304688 " fill-opacity="1" fill-rule="evenodd"/><path fill="#00ccff" d="M 197.445312 195.71875 L 230.191406 195.71875 C 231.265625 195.71875 232.144531 196.597656 232.144531 197.671875 L 232.144531 216.0625 C 232.144531 217.136719 231.265625 218.015625 230.191406 218.015625 L 197.445312 218.015625 C 196.375 218.015625 195.496094 217.136719 195.496094 216.0625 L 195.496094 197.671875 C 195.496094 196.597656 196.375 195.71875 197.445312 195.71875 Z M 199.019531 198.777344 L 228.617188 198.777344 L 228.617188 214.957031 L 199.019531 214.957031 Z M 199.019531 198.777344 " fill-opacity="1" fill-rule="evenodd"/><path fill="#00ccff" d="M 216.574219 217.011719 L 211.066406 217.011719 L 211.433594 221.394531 L 211.585938 222.761719 L 216.054688 222.761719 L 216.203125 221.394531 Z M 216.574219 217.011719 " fill-opacity="1" fill-rule="evenodd"/><path fill="#00ccff" d="M 221.660156 223.332031 C 221.660156 222.585938 220.109375 221.933594 217.796875 221.578125 L 217.492188 223.78125 L 210.148438 223.78125 L 209.839844 221.578125 C 207.527344 221.933594 205.976562 222.585938 205.976562 223.332031 C 205.976562 224.457031 209.488281 225.371094 213.820312 225.371094 C 218.148438 225.371094 221.660156 224.457031 221.660156 223.332031 Z M 221.660156 223.332031 " fill-opacity="1" fill-rule="evenodd"/><path fill="#00ccff" d="M 144.621094 195.71875 L 177.367188 195.71875 C 178.4375 195.71875 179.316406 196.597656 179.316406 197.671875 L 179.316406 216.0625 C 179.316406 217.136719 178.4375 218.015625 177.367188 218.015625 L 144.621094 218.015625 C 143.546875 218.015625 142.667969 217.136719 142.667969 216.0625 L 142.667969 197.671875 C 142.667969 196.597656 143.546875 195.71875 144.621094 195.71875 Z M 146.195312 198.777344 L 175.792969 198.777344 L 175.792969 214.957031 L 146.195312 214.957031 Z M 146.195312 198.777344 " fill-opacity="1" fill-rule="evenodd"/><path fill="#00ccff" d="M 163.746094 217.011719 L 158.238281 217.011719 L 158.609375 221.394531 L 158.757812 222.761719 L 163.226562 222.761719 L 163.378906 221.394531 Z M 163.746094 217.011719 " fill-opacity="1" fill-rule="evenodd"/><path fill="#00ccff" d="M 168.835938 223.332031 C 168.835938 222.585938 167.28125 221.933594 164.972656 221.578125 L 164.664062 223.78125 L 157.320312 223.78125 L 157.015625 221.578125 C 154.703125 221.933594 153.152344 222.585938 153.152344 223.332031 C 153.152344 224.457031 156.664062 225.371094 160.992188 225.371094 C 165.324219 225.371094 168.835938 224.457031 168.835938 223.332031 Z M 168.835938 223.332031 " fill-opacity="1" fill-rule="evenodd"/></svg>