<svg xmlns="http://www.w3.org/2000/svg" xmlns:xlink="http://www.w3.org/1999/xlink" width="500" zoomAndPan="magnify" viewBox="0 0 375 374.999991" height="500" preserveAspectRatio="xMidYMid meet" version="1.0"><defs><clipPath id="a26b9cab18"><path d="M 112.5 132 L 262.5 132 L 262.5 243 L 112.5 243 Z M 112.5 132 " clip-rule="nonzero"/></clipPath><clipPath id="bb77213d3f"><path d="M 112.5 157 L 126 157 L 126 218 L 112.5 218 Z M 112.5 157 " clip-rule="nonzero"/></clipPath><clipPath id="585b304273"><path d="M 112.5 161 L 122 161 L 122 163 L 112.5 163 Z M 112.5 161 " clip-rule="nonzero"/></clipPath><clipPath id="03710e63fa"><path d="M 112.5 164 L 122 164 L 122 166 L 112.5 166 Z M 112.5 164 " clip-rule="nonzero"/></clipPath><clipPath id="9cd22f93b3"><path d="M 112.5 167 L 122 167 L 122 169 L 112.5 169 Z M 112.5 167 " clip-rule="nonzero"/></clipPath><clipPath id="5074e6f76b"><path d="M 112.5 169 L 122 169 L 122 171 L 112.5 171 Z M 112.5 169 " clip-rule="nonzero"/></clipPath><clipPath id="98e8363897"><path d="M 112.5 172 L 122 172 L 122 174 L 112.5 174 Z M 112.5 172 " clip-rule="nonzero"/></clipPath><clipPath id="00eab29987"><path d="M 112.5 174 L 122 174 L 122 177 L 112.5 177 Z M 112.5 174 " clip-rule="nonzero"/></clipPath><clipPath id="ae7d5c2e48"><path d="M 112.5 177 L 122 177 L 122 179 L 112.5 179 Z M 112.5 177 " clip-rule="nonzero"/></clipPath><clipPath id="0030782a69"><path d="M 112.5 180 L 122 180 L 122 182 L 112.5 182 Z M 112.5 180 " clip-rule="nonzero"/></clipPath><clipPath id="be508c120c"><path d="M 112.5 182 L 122 182 L 122 185 L 112.5 185 Z M 112.5 182 " clip-rule="nonzero"/></clipPath><clipPath id="42331b76f5"><path d="M 112.5 185 L 122 185 L 122 187 L 112.5 187 Z M 112.5 185 " clip-rule="nonzero"/></clipPath><clipPath id="e35438e3ef"><path d="M 112.5 188 L 122 188 L 122 190 L 112.5 190 Z M 112.5 188 " clip-rule="nonzero"/></clipPath><clipPath id="2181d7d1e2"><path d="M 112.5 190 L 122 190 L 122 193 L 112.5 193 Z M 112.5 190 " clip-rule="nonzero"/></clipPath><clipPath id="62130e730b"><path d="M 112.5 193 L 122 193 L 122 195 L 112.5 195 Z M 112.5 193 " clip-rule="nonzero"/></clipPath><clipPath id="579e193b9c"><path d="M 112.5 196 L 122 196 L 122 198 L 112.5 198 Z M 112.5 196 " clip-rule="nonzero"/></clipPath><clipPath id="3fd728581d"><path d="M 112.5 198 L 122 198 L 122 200 L 112.5 200 Z M 112.5 198 " clip-rule="nonzero"/></clipPath><clipPath id="589470d9b3"><path d="M 112.5 201 L 122 201 L 122 203 L 112.5 203 Z M 112.5 201 " clip-rule="nonzero"/></clipPath><clipPath id="6bcc11b43d"><path d="M 112.5 204 L 122 204 L 122 206 L 112.5 206 Z M 112.5 204 " clip-rule="nonzero"/></clipPath><clipPath id="6368c65f89"><path d="M 112.5 206 L 122 206 L 122 208 L 112.5 208 Z M 112.5 206 " clip-rule="nonzero"/></clipPath><clipPath id="5683976c49"><path d="M 112.5 209 L 122 209 L 122 211 L 112.5 211 Z M 112.5 209 " clip-rule="nonzero"/></clipPath><clipPath id="6bb1137afc"><path d="M 112.5 212 L 122 212 L 122 214 L 112.5 214 Z M 112.5 212 " clip-rule="nonzero"/></clipPath></defs><g clip-path="url(#a26b9cab18)"><path fill="#515253" d="M 262.492188 236.980469 C 262.492188 240.277344 259.820312 242.949219 256.523438 242.949219 L 118.464844 242.949219 C 115.167969 242.949219 112.496094 240.277344 112.496094 236.980469 L 112.496094 138.019531 C 112.496094 134.722656 115.167969 132.050781 118.464844 132.050781 L 256.523438 132.050781 C 259.820312 132.050781 262.492188 134.722656 262.492188 138.019531 L 262.492188 236.980469 " fill-opacity="1" fill-rule="nonzero"/></g><path fill="#6b6b6b" d="M 118.210938 229.800781 L 118.210938 145.199219 C 118.210938 142.222656 120.621094 139.8125 123.597656 139.8125 L 251.394531 139.8125 C 254.367188 139.8125 118.210938 232.777344 118.210938 229.800781 " fill-opacity="1" fill-rule="nonzero"/><path fill="#989696" d="M 257.777344 138.9375 C 257.582031 140.460938 256.183594 141.539062 254.652344 141.339844 C 253.128906 141.140625 252.050781 139.742188 252.25 138.214844 C 252.449219 136.6875 253.847656 135.613281 255.375 135.8125 C 256.902344 136.007812 257.980469 137.410156 257.777344 138.9375 " fill-opacity="1" fill-rule="nonzero"/><path fill="#dad9d9" d="M 255.234375 136.898438 L 255.015625 138.574219 L 253.675781 139.605469 C 253.410156 139.261719 253.277344 138.820312 253.339844 138.355469 C 253.460938 137.429688 254.308594 136.777344 255.234375 136.898438 " fill-opacity="1" fill-rule="nonzero"/><path fill="#dad9d9" d="M 256.355469 137.542969 C 256.617188 137.886719 256.753906 138.332031 256.691406 138.792969 C 256.570312 139.71875 255.722656 140.371094 254.796875 140.253906 L 255.015625 138.574219 L 256.355469 137.542969 " fill-opacity="1" fill-rule="nonzero"/><path fill="#ffffff" d="M 255.234375 136.898438 C 255.695312 136.960938 256.089844 137.203125 256.355469 137.546875 L 255.015625 138.574219 L 255.234375 136.898438 " fill-opacity="1" fill-rule="nonzero"/><path fill="#ffffff" d="M 254.796875 140.25 C 254.332031 140.191406 253.9375 139.949219 253.675781 139.605469 L 255.015625 138.578125 L 254.796875 140.25 " fill-opacity="1" fill-rule="nonzero"/><path fill="#6c696a" d="M 255.828125 138.683594 C 255.769531 139.132812 255.355469 139.449219 254.90625 139.390625 C 254.460938 139.328125 254.140625 138.917969 254.199219 138.46875 C 254.261719 138.023438 254.671875 137.703125 255.121094 137.761719 C 255.570312 137.820312 255.886719 138.234375 255.828125 138.683594 " fill-opacity="1" fill-rule="nonzero"/><path fill="#989696" d="M 257.777344 236.78125 C 257.582031 238.308594 256.183594 239.386719 254.652344 239.1875 C 253.128906 238.988281 252.050781 237.589844 252.25 236.0625 C 252.449219 234.535156 253.847656 233.460938 255.375 233.65625 C 256.902344 233.855469 257.980469 235.257812 257.777344 236.78125 " fill-opacity="1" fill-rule="nonzero"/><path fill="#dad9d9" d="M 255.234375 234.746094 L 255.015625 236.421875 L 253.675781 237.453125 C 253.410156 237.113281 253.277344 236.667969 253.339844 236.203125 C 253.460938 235.277344 254.308594 234.625 255.234375 234.746094 " fill-opacity="1" fill-rule="nonzero"/><path fill="#dad9d9" d="M 256.355469 235.390625 C 256.617188 235.734375 256.753906 236.179688 256.691406 236.640625 C 256.570312 237.566406 255.722656 238.21875 254.796875 238.097656 L 255.015625 236.421875 L 256.355469 235.390625 " fill-opacity="1" fill-rule="nonzero"/><path fill="#ffffff" d="M 255.234375 234.746094 C 255.695312 234.808594 256.089844 235.050781 256.355469 235.390625 L 255.015625 236.421875 L 255.234375 234.746094 " fill-opacity="1" fill-rule="nonzero"/><path fill="#ffffff" d="M 254.796875 238.097656 C 254.332031 238.039062 253.9375 237.796875 253.675781 237.453125 L 255.015625 236.421875 L 254.796875 238.097656 " fill-opacity="1" fill-rule="nonzero"/><path fill="#6c696a" d="M 255.828125 236.53125 C 255.769531 236.976562 255.355469 237.292969 254.90625 237.234375 C 254.460938 237.175781 254.140625 236.765625 254.199219 236.316406 C 254.261719 235.867188 254.671875 235.550781 255.121094 235.609375 C 255.570312 235.667969 255.886719 236.078125 255.828125 236.53125 " fill-opacity="1" fill-rule="nonzero"/><path fill="#989696" d="M 122.738281 138.9375 C 122.539062 140.464844 121.140625 141.539062 119.613281 141.339844 C 118.085938 141.140625 117.011719 139.742188 117.210938 138.214844 C 117.410156 136.6875 118.808594 135.613281 120.335938 135.8125 C 121.863281 136.011719 122.9375 137.410156 122.738281 138.9375 " fill-opacity="1" fill-rule="nonzero"/><path fill="#dad9d9" d="M 120.191406 136.898438 L 119.972656 138.574219 L 118.632812 139.605469 C 118.371094 139.261719 118.238281 138.820312 118.296875 138.355469 C 118.417969 137.429688 119.265625 136.777344 120.191406 136.898438 " fill-opacity="1" fill-rule="nonzero"/><path fill="#dad9d9" d="M 121.3125 137.546875 C 121.578125 137.886719 121.710938 138.332031 121.648438 138.792969 C 121.53125 139.71875 120.679688 140.371094 119.753906 140.25 L 119.972656 138.574219 L 121.3125 137.546875 " fill-opacity="1" fill-rule="nonzero"/><path fill="#ffffff" d="M 120.191406 136.898438 C 120.65625 136.960938 121.050781 137.203125 121.3125 137.546875 L 119.972656 138.574219 L 120.191406 136.898438 " fill-opacity="1" fill-rule="nonzero"/><path fill="#ffffff" d="M 119.753906 140.25 C 119.292969 140.191406 118.898438 139.949219 118.632812 139.605469 L 119.972656 138.574219 L 119.753906 140.25 " fill-opacity="1" fill-rule="nonzero"/><path fill="#6c696a" d="M 120.785156 138.679688 C 120.730469 139.128906 120.316406 139.445312 119.867188 139.390625 C 119.417969 139.328125 119.101562 138.917969 119.160156 138.46875 C 119.21875 138.019531 119.632812 137.703125 120.078125 137.761719 C 120.527344 137.820312 120.84375 138.230469 120.785156 138.679688 " fill-opacity="1" fill-rule="nonzero"/><path fill="#989696" d="M 122.738281 236.78125 C 122.539062 238.308594 121.140625 239.386719 119.613281 239.1875 C 118.085938 238.988281 117.011719 237.589844 117.210938 236.0625 C 117.410156 234.535156 118.808594 233.460938 120.335938 233.660156 C 121.863281 233.855469 122.9375 235.257812 122.738281 236.78125 " fill-opacity="1" fill-rule="nonzero"/><path fill="#dad9d9" d="M 120.191406 234.746094 L 119.972656 236.421875 L 118.632812 237.453125 C 118.371094 237.113281 118.238281 236.667969 118.296875 236.203125 C 118.417969 235.277344 119.265625 234.625 120.191406 234.746094 " fill-opacity="1" fill-rule="nonzero"/><path fill="#dad9d9" d="M 121.3125 235.390625 C 121.578125 235.734375 121.710938 236.179688 121.648438 236.640625 C 121.53125 237.566406 120.679688 238.21875 119.753906 238.097656 L 119.972656 236.421875 L 121.3125 235.390625 " fill-opacity="1" fill-rule="nonzero"/><path fill="#ffffff" d="M 120.191406 234.746094 C 120.65625 234.808594 121.050781 235.050781 121.3125 235.390625 L 119.972656 236.421875 L 120.191406 234.746094 " fill-opacity="1" fill-rule="nonzero"/><path fill="#ffffff" d="M 119.753906 238.097656 C 119.292969 238.039062 118.898438 237.796875 118.632812 237.453125 L 119.972656 236.421875 L 119.753906 238.097656 " fill-opacity="1" fill-rule="nonzero"/><path fill="#6c696a" d="M 120.785156 236.527344 C 120.730469 236.976562 120.316406 237.292969 119.867188 237.234375 C 119.417969 237.175781 119.101562 236.765625 119.160156 236.316406 C 119.21875 235.867188 119.632812 235.550781 120.078125 235.609375 C 120.527344 235.667969 120.84375 236.078125 120.785156 236.527344 " fill-opacity="1" fill-rule="nonzero"/><path fill="#dad9d9" d="M 245.09375 232.628906 C 245.09375 233.960938 244.015625 235.039062 242.6875 235.039062 L 132.304688 235.039062 C 130.972656 235.039062 129.894531 233.960938 129.894531 232.628906 C 129.894531 231.300781 130.972656 230.222656 132.304688 230.222656 L 242.6875 230.222656 C 244.015625 230.222656 245.09375 231.300781 245.09375 232.628906 " fill-opacity="1" fill-rule="nonzero"/><path fill="#acaaa9" d="M 245.09375 145 C 245.09375 146.332031 244.015625 147.410156 242.6875 147.410156 L 132.304688 147.410156 C 130.972656 147.410156 129.894531 146.332031 129.894531 145 C 129.894531 143.671875 130.972656 142.59375 132.304688 142.59375 L 242.6875 142.59375 C 244.015625 142.59375 245.09375 143.671875 245.09375 145 " fill-opacity="1" fill-rule="nonzero"/><path fill="#2f3132" d="M 237.878906 220.742188 C 237.878906 222.957031 236.085938 224.75 233.871094 224.75 L 141.117188 224.75 C 138.90625 224.75 137.109375 222.957031 137.109375 220.742188 L 137.109375 154.257812 C 137.109375 152.042969 138.90625 150.246094 141.117188 150.246094 L 233.871094 150.246094 C 236.085938 150.246094 237.878906 152.042969 237.878906 154.257812 L 237.878906 220.742188 " fill-opacity="1" fill-rule="nonzero"/><path fill="#e2e0df" d="M 233.890625 218.109375 C 233.890625 220.148438 232.238281 221.800781 230.199219 221.800781 L 144.789062 221.800781 C 142.75 221.800781 141.097656 220.148438 141.097656 218.109375 L 141.097656 156.890625 C 141.097656 154.847656 142.75 153.195312 144.789062 153.195312 L 230.199219 153.195312 C 232.238281 153.195312 233.890625 154.847656 233.890625 156.890625 L 233.890625 218.109375 " fill-opacity="1" fill-rule="nonzero"/><g clip-path="url(#bb77213d3f)"><path fill="#2f3132" d="M 112.496094 157.519531 L 122.324219 157.519531 C 124.105469 157.519531 125.550781 158.964844 125.550781 160.746094 L 125.550781 214.253906 C 125.550781 216.035156 124.105469 217.480469 122.324219 217.480469 L 112.496094 217.480469 L 112.496094 157.519531 " fill-opacity="1" fill-rule="nonzero"/></g><g clip-path="url(#585b304273)"><path fill="#e0a544" d="M 121.910156 162.9375 L 112.496094 162.9375 L 112.496094 161.757812 L 121.910156 161.757812 L 121.910156 162.9375 " fill-opacity="1" fill-rule="nonzero"/></g><g clip-path="url(#03710e63fa)"><path fill="#e0a544" d="M 121.910156 165.582031 L 112.496094 165.582031 L 112.496094 164.40625 L 121.910156 164.40625 L 121.910156 165.582031 " fill-opacity="1" fill-rule="nonzero"/></g><g clip-path="url(#9cd22f93b3)"><path fill="#e0a544" d="M 121.910156 168.230469 L 112.496094 168.230469 L 112.496094 167.054688 L 121.910156 167.054688 L 121.910156 168.230469 " fill-opacity="1" fill-rule="nonzero"/></g><g clip-path="url(#5074e6f76b)"><path fill="#e0a544" d="M 121.910156 170.878906 L 112.496094 170.878906 L 112.496094 169.703125 L 121.910156 169.703125 L 121.910156 170.878906 " fill-opacity="1" fill-rule="nonzero"/></g><g clip-path="url(#98e8363897)"><path fill="#e0a544" d="M 121.910156 173.527344 L 112.496094 173.527344 L 112.496094 172.347656 L 121.910156 172.347656 L 121.910156 173.527344 " fill-opacity="1" fill-rule="nonzero"/></g><g clip-path="url(#00eab29987)"><path fill="#e0a544" d="M 121.910156 176.175781 L 112.496094 176.175781 L 112.496094 174.996094 L 121.910156 174.996094 L 121.910156 176.175781 " fill-opacity="1" fill-rule="nonzero"/></g><g clip-path="url(#ae7d5c2e48)"><path fill="#e0a544" d="M 121.910156 178.820312 L 112.496094 178.820312 L 112.496094 177.644531 L 121.910156 177.644531 L 121.910156 178.820312 " fill-opacity="1" fill-rule="nonzero"/></g><g clip-path="url(#0030782a69)"><path fill="#e0a544" d="M 121.910156 181.46875 L 112.496094 181.46875 L 112.496094 180.292969 L 121.910156 180.292969 L 121.910156 181.46875 " fill-opacity="1" fill-rule="nonzero"/></g><g clip-path="url(#be508c120c)"><path fill="#e0a544" d="M 121.910156 184.117188 L 112.496094 184.117188 L 112.496094 182.941406 L 121.910156 182.941406 L 121.910156 184.117188 " fill-opacity="1" fill-rule="nonzero"/></g><g clip-path="url(#42331b76f5)"><path fill="#e0a544" d="M 121.910156 186.761719 L 112.496094 186.761719 L 112.496094 185.585938 L 121.910156 185.585938 L 121.910156 186.761719 " fill-opacity="1" fill-rule="nonzero"/></g><g clip-path="url(#e35438e3ef)"><path fill="#e0a544" d="M 121.910156 189.410156 L 112.496094 189.410156 L 112.496094 188.234375 L 121.910156 188.234375 L 121.910156 189.410156 " fill-opacity="1" fill-rule="nonzero"/></g><g clip-path="url(#2181d7d1e2)"><path fill="#e0a544" d="M 121.910156 192.058594 L 112.496094 192.058594 L 112.496094 190.882812 L 121.910156 190.882812 L 121.910156 192.058594 " fill-opacity="1" fill-rule="nonzero"/></g><g clip-path="url(#62130e730b)"><path fill="#e0a544" d="M 121.910156 194.707031 L 112.496094 194.707031 L 112.496094 193.53125 L 121.910156 193.53125 L 121.910156 194.707031 " fill-opacity="1" fill-rule="nonzero"/></g><g clip-path="url(#579e193b9c)"><path fill="#e0a544" d="M 121.910156 197.355469 L 112.496094 197.355469 L 112.496094 196.175781 L 121.910156 196.175781 L 121.910156 197.355469 " fill-opacity="1" fill-rule="nonzero"/></g><g clip-path="url(#3fd728581d)"><path fill="#e0a544" d="M 121.910156 200 L 112.496094 200 L 112.496094 198.824219 L 121.910156 198.824219 L 121.910156 200 " fill-opacity="1" fill-rule="nonzero"/></g><g clip-path="url(#589470d9b3)"><path fill="#e0a544" d="M 121.910156 202.648438 L 112.496094 202.648438 L 112.496094 201.472656 L 121.910156 201.472656 L 121.910156 202.648438 " fill-opacity="1" fill-rule="nonzero"/></g><g clip-path="url(#6bcc11b43d)"><path fill="#e0a544" d="M 121.910156 205.296875 L 112.496094 205.296875 L 112.496094 204.121094 L 121.910156 204.121094 L 121.910156 205.296875 " fill-opacity="1" fill-rule="nonzero"/></g><g clip-path="url(#6368c65f89)"><path fill="#e0a544" d="M 121.910156 207.945312 L 112.496094 207.945312 L 112.496094 206.769531 L 121.910156 206.769531 L 121.910156 207.945312 " fill-opacity="1" fill-rule="nonzero"/></g><g clip-path="url(#5683976c49)"><path fill="#e0a544" d="M 121.910156 210.589844 L 112.496094 210.589844 L 112.496094 209.414062 L 121.910156 209.414062 L 121.910156 210.589844 " fill-opacity="1" fill-rule="nonzero"/></g><g clip-path="url(#6bb1137afc)"><path fill="#e0a544" d="M 121.910156 213.238281 L 112.496094 213.238281 L 112.496094 212.0625 L 121.910156 212.0625 L 121.910156 213.238281 " fill-opacity="1" fill-rule="nonzero"/></g><path fill="#515253" d="M 161.039062 189.960938 C 161.039062 191.96875 161.765625 193.542969 163.21875 194.691406 C 164.675781 195.839844 166.671875 196.414062 169.210938 196.414062 C 171.699219 196.414062 173.625 195.832031 174.988281 194.667969 C 176.347656 193.5 177.03125 192.039062 177.03125 190.273438 C 177.03125 188.558594 176.457031 187.242188 175.304688 186.335938 C 174.566406 185.75 173.453125 185.285156 171.96875 184.9375 L 168.582031 184.136719 C 167.277344 183.832031 166.421875 183.566406 166.019531 183.339844 C 165.394531 183 165.082031 182.484375 165.082031 181.792969 C 165.082031 181.042969 165.398438 180.460938 166.035156 180.039062 C 166.667969 179.621094 167.519531 179.414062 168.582031 179.414062 C 169.539062 179.414062 170.339844 179.574219 170.984375 179.898438 C 171.953125 180.386719 172.46875 181.210938 172.542969 182.371094 L 176.414062 182.371094 C 176.34375 180.320312 175.582031 178.757812 174.128906 177.679688 C 172.675781 176.601562 170.921875 176.0625 168.863281 176.0625 C 166.398438 176.0625 164.53125 176.632812 163.257812 177.777344 C 161.988281 178.921875 161.351562 180.355469 161.351562 182.082031 C 161.351562 183.976562 162 185.367188 163.300781 186.257812 C 164.070312 186.789062 165.480469 187.28125 167.53125 187.738281 L 169.621094 188.195312 C 170.84375 188.457031 171.734375 188.757812 172.300781 189.097656 C 172.863281 189.445312 173.144531 189.9375 173.144531 190.578125 C 173.144531 191.667969 172.570312 192.414062 171.417969 192.8125 C 170.8125 193.023438 170.027344 193.128906 169.054688 193.128906 C 167.433594 193.128906 166.289062 192.730469 165.621094 191.9375 C 165.253906 191.5 165.011719 190.84375 164.886719 189.960938 Z M 178.914062 189.960938 C 178.914062 191.96875 179.640625 193.542969 181.097656 194.691406 C 182.550781 195.839844 184.550781 196.414062 187.089844 196.414062 C 189.578125 196.414062 191.5 195.832031 192.863281 194.667969 C 194.226562 193.5 194.910156 192.039062 194.910156 190.273438 C 194.910156 188.558594 194.332031 187.242188 193.183594 186.335938 C 192.445312 185.75 191.332031 185.285156 189.847656 184.9375 L 186.460938 184.136719 C 185.15625 183.832031 184.300781 183.566406 183.898438 183.339844 C 183.273438 183 182.960938 182.484375 182.960938 181.792969 C 182.960938 181.042969 183.277344 180.460938 183.910156 180.039062 C 184.546875 179.621094 185.398438 179.414062 186.460938 179.414062 C 187.417969 179.414062 188.21875 179.574219 188.863281 179.898438 C 189.828125 180.386719 190.347656 181.210938 190.417969 182.371094 L 194.292969 182.371094 C 194.222656 180.320312 193.460938 178.757812 192.007812 177.679688 C 190.554688 176.601562 188.800781 176.0625 186.742188 176.0625 C 184.277344 176.0625 182.410156 176.632812 181.136719 177.777344 C 179.867188 178.921875 179.230469 180.355469 179.230469 182.082031 C 179.230469 183.976562 179.878906 185.367188 181.179688 186.257812 C 181.949219 186.789062 183.359375 187.28125 185.410156 187.738281 L 187.496094 188.195312 C 188.722656 188.457031 189.613281 188.757812 190.175781 189.097656 C 190.738281 189.445312 191.019531 189.9375 191.019531 190.578125 C 191.019531 191.667969 190.445312 192.414062 189.296875 192.8125 C 188.691406 193.023438 187.902344 193.128906 186.933594 193.128906 C 185.3125 193.128906 184.164062 192.730469 183.496094 191.9375 C 183.132812 191.5 182.886719 190.84375 182.761719 189.960938 Z M 205.371094 179.976562 C 207.207031 179.976562 208.433594 180.5 209.046875 181.550781 C 209.664062 182.605469 209.972656 184.109375 209.972656 186.074219 C 209.972656 187.496094 209.765625 188.722656 209.355469 189.75 C 208.605469 191.628906 207.277344 192.566406 205.371094 192.566406 L 201.648438 192.566406 L 201.648438 179.976562 Z M 206.050781 176.625 L 197.734375 176.625 L 197.734375 195.914062 L 206.050781 195.914062 C 208.96875 195.914062 211.125 194.714844 212.523438 192.316406 C 213.554688 190.535156 214.066406 188.363281 214.066406 185.800781 C 214.066406 184.789062 213.945312 183.722656 213.703125 182.605469 C 213.457031 181.488281 213 180.453125 212.324219 179.492188 C 211.488281 178.304688 210.390625 177.488281 209.039062 177.042969 C 208.242188 176.78125 207.25 176.640625 206.050781 176.625 " fill-opacity="1" fill-rule="nonzero"/><path fill="#515253" d="M 222.636719 159.292969 L 152.351562 159.292969 L 152.351562 157.519531 L 222.636719 157.519531 L 222.636719 159.292969 " fill-opacity="1" fill-rule="nonzero"/><path fill="#515253" d="M 222.636719 163.824219 L 152.351562 163.824219 L 152.351562 162.046875 L 222.636719 162.046875 L 222.636719 163.824219 " fill-opacity="1" fill-rule="nonzero"/><path fill="#515253" d="M 222.636719 168.351562 L 152.351562 168.351562 L 152.351562 166.578125 L 222.636719 166.578125 L 222.636719 168.351562 " fill-opacity="1" fill-rule="nonzero"/><path fill="#515253" d="M 163.625 212.625 L 147.804688 212.625 L 147.804688 210.851562 L 163.625 210.851562 L 163.625 212.625 " fill-opacity="1" fill-rule="nonzero"/><path fill="#515253" d="M 163.625 216.566406 L 147.804688 216.566406 L 147.804688 214.792969 L 163.625 214.792969 L 163.625 216.566406 " fill-opacity="1" fill-rule="nonzero"/><path fill="#515253" d="M 184.8125 212.625 L 168.992188 212.625 L 168.992188 210.851562 L 184.8125 210.851562 L 184.8125 212.625 " fill-opacity="1" fill-rule="nonzero"/><path fill="#515253" d="M 184.8125 216.566406 L 168.992188 216.566406 L 168.992188 214.792969 L 184.8125 214.792969 L 184.8125 216.566406 " fill-opacity="1" fill-rule="nonzero"/><path fill="#515253" d="M 206 212.625 L 190.175781 212.625 L 190.175781 210.851562 L 206 210.851562 L 206 212.625 " fill-opacity="1" fill-rule="nonzero"/><path fill="#515253" d="M 206 216.566406 L 190.175781 216.566406 L 190.175781 214.792969 L 206 214.792969 L 206 216.566406 " fill-opacity="1" fill-rule="nonzero"/><path fill="#515253" d="M 227.183594 212.625 L 211.363281 212.625 L 211.363281 210.851562 L 227.183594 210.851562 L 227.183594 212.625 " fill-opacity="1" fill-rule="nonzero"/><path fill="#515253" d="M 227.183594 216.566406 L 211.363281 216.566406 L 211.363281 214.792969 L 227.183594 214.792969 L 227.183594 216.566406 " fill-opacity="1" fill-rule="nonzero"/><path fill="#515253" d="M 157.421875 204.414062 C 157.421875 206.039062 156.105469 207.355469 154.480469 207.355469 C 152.855469 207.355469 151.539062 206.039062 151.539062 204.414062 C 151.539062 202.789062 152.855469 201.472656 154.480469 201.472656 C 156.105469 201.472656 157.421875 202.789062 157.421875 204.414062 " fill-opacity="1" fill-rule="nonzero"/><path fill="#515253" d="M 169.804688 204.414062 C 169.804688 206.039062 168.484375 207.355469 166.859375 207.355469 C 165.238281 207.355469 163.917969 206.039062 163.917969 204.414062 C 163.917969 202.789062 165.238281 201.472656 166.859375 201.472656 C 168.484375 201.472656 169.804688 202.789062 169.804688 204.414062 " fill-opacity="1" fill-rule="nonzero"/><path fill="#515253" d="M 211.070312 204.414062 C 211.070312 206.039062 209.753906 207.355469 208.128906 207.355469 C 206.503906 207.355469 205.183594 206.039062 205.183594 204.414062 C 205.183594 202.789062 206.503906 201.472656 208.128906 201.472656 C 209.753906 201.472656 211.070312 202.789062 211.070312 204.414062 " fill-opacity="1" fill-rule="nonzero"/><path fill="#515253" d="M 223.449219 204.414062 C 223.449219 206.039062 222.132812 207.355469 220.511719 207.355469 C 218.886719 207.355469 217.566406 206.039062 217.566406 204.414062 C 217.566406 202.789062 218.886719 201.472656 220.511719 201.472656 C 222.132812 201.472656 223.449219 202.789062 223.449219 204.414062 " fill-opacity="1" fill-rule="nonzero"/></svg>