<svg xmlns="http://www.w3.org/2000/svg" xmlns:xlink="http://www.w3.org/1999/xlink" width="500" zoomAndPan="magnify" viewBox="0 0 375 374.999991" height="500" preserveAspectRatio="xMidYMid meet" version="1.0"><defs><clipPath id="911a5c1d5e"><path d="M 184 156 L 262.5 156 L 262.5 259 L 184 259 Z M 184 156 " clip-rule="nonzero"/></clipPath><clipPath id="df08b1624d"><path d="M 114 115.40625 L 262.5 115.40625 L 262.5 201 L 114 201 Z M 114 115.40625 " clip-rule="nonzero"/></clipPath><clipPath id="c039f1358d"><path d="M 112.5 159 L 187 159 L 187 259.40625 L 112.5 259.40625 Z M 112.5 159 " clip-rule="nonzero"/></clipPath><clipPath id="99685ec2f9"><path d="M 176 200 L 187 200 L 187 259.40625 L 176 259.40625 Z M 176 200 " clip-rule="nonzero"/></clipPath><clipPath id="f666d96f84"><path d="M 112.5 160 L 185 160 L 185 259.40625 L 112.5 259.40625 Z M 112.5 160 " clip-rule="nonzero"/></clipPath></defs><g clip-path="url(#911a5c1d5e)"><path fill="#0b0c0c" d="M 262.441406 214.335938 L 186.742188 258.007812 L 184.179688 218.523438 L 185.539062 205.269531 L 186.742188 200.449219 L 262.441406 156.777344 L 262.441406 214.335938 " fill-opacity="1" fill-rule="nonzero"/></g><g clip-path="url(#df08b1624d)"><path fill="#484a4d" d="M 262.441406 156.777344 L 186.742188 200.449219 L 181.167969 199.585938 L 120.046875 164.664062 L 114.996094 159.082031 L 190.699219 115.410156 L 262.441406 156.777344 " fill-opacity="1" fill-rule="nonzero"/></g><path fill="#0b0c0c" d="M 114.996094 159.082031 L 114.996094 216.640625 L 186.742188 258.007812 L 186.742188 200.449219 L 114.996094 159.082031 " fill-opacity="1" fill-rule="nonzero"/><g clip-path="url(#c039f1358d)"><path fill="#484a4d" d="M 114.996094 159.082031 L 112.566406 160.480469 L 184.3125 259.410156 L 186.742188 200.449219 L 167.019531 182.804688 L 114.996094 159.082031 " fill-opacity="1" fill-rule="nonzero"/></g><g clip-path="url(#99685ec2f9)"><path fill="#0b0c0c" d="M 176.242188 218.273438 L 184.3125 259.410156 L 186.742188 258.007812 L 186.742188 200.449219 L 184.3125 201.851562 L 176.242188 218.273438 " fill-opacity="1" fill-rule="nonzero"/></g><g clip-path="url(#f666d96f84)"><path fill="#2a2b2c" d="M 112.566406 160.480469 L 112.566406 218.042969 L 184.3125 259.410156 L 184.3125 201.851562 L 112.566406 160.480469 " fill-opacity="1" fill-rule="nonzero"/></g><path fill="#948f88" d="M 176.242188 253.464844 L 155.332031 241.40625 L 155.332031 186.414062 L 176.242188 198.46875 L 176.242188 253.464844 " fill-opacity="1" fill-rule="nonzero"/><path fill="#484a4d" d="M 148.441406 186.148438 L 148.441406 187.023438 L 114.292969 167.335938 L 114.292969 164.828125 L 115.050781 165.261719 L 148.441406 186.148438 " fill-opacity="1" fill-rule="nonzero"/><path fill="#0b0c0c" d="M 148.441406 184.511719 L 148.441406 186.148438 L 115.050781 166.894531 L 115.050781 165.261719 L 148.441406 184.511719 " fill-opacity="1" fill-rule="nonzero"/><path fill="#484a4d" d="M 148.441406 190.582031 L 148.441406 191.453125 L 114.292969 171.765625 L 114.292969 169.257812 L 115.050781 169.695312 L 148.441406 190.582031 " fill-opacity="1" fill-rule="nonzero"/><path fill="#0b0c0c" d="M 148.441406 188.945312 L 148.441406 190.582031 L 115.050781 171.324219 L 115.050781 169.695312 L 148.441406 188.945312 " fill-opacity="1" fill-rule="nonzero"/><path fill="#484a4d" d="M 148.441406 195.007812 L 148.441406 195.886719 L 114.292969 176.199219 L 114.292969 173.6875 L 115.050781 174.128906 L 148.441406 195.007812 " fill-opacity="1" fill-rule="nonzero"/><path fill="#0b0c0c" d="M 148.441406 193.378906 L 148.441406 195.007812 L 115.050781 175.757812 L 115.050781 174.128906 L 148.441406 193.378906 " fill-opacity="1" fill-rule="nonzero"/><path fill="#484a4d" d="M 148.441406 199.441406 L 148.441406 200.316406 L 114.292969 180.628906 L 114.292969 178.121094 L 115.050781 178.558594 L 148.441406 199.441406 " fill-opacity="1" fill-rule="nonzero"/><path fill="#0b0c0c" d="M 148.441406 197.808594 L 148.441406 199.441406 L 115.050781 180.1875 L 115.050781 178.558594 L 148.441406 197.808594 " fill-opacity="1" fill-rule="nonzero"/><path fill="#484a4d" d="M 148.441406 203.875 L 148.441406 204.75 L 114.292969 185.0625 L 114.292969 182.550781 L 115.050781 182.992188 L 148.441406 203.875 " fill-opacity="1" fill-rule="nonzero"/><path fill="#0b0c0c" d="M 148.441406 202.242188 L 148.441406 203.875 L 115.050781 184.621094 L 115.050781 182.992188 L 148.441406 202.242188 " fill-opacity="1" fill-rule="nonzero"/><path fill="#484a4d" d="M 148.441406 208.304688 L 148.441406 209.183594 L 114.292969 189.492188 L 114.292969 186.984375 L 115.050781 187.421875 L 148.441406 208.304688 " fill-opacity="1" fill-rule="nonzero"/><path fill="#0b0c0c" d="M 148.441406 206.671875 L 148.441406 208.304688 L 115.050781 189.054688 L 115.050781 187.421875 L 148.441406 206.671875 " fill-opacity="1" fill-rule="nonzero"/><path fill="#484a4d" d="M 148.441406 212.738281 L 148.441406 213.613281 L 114.292969 193.925781 L 114.292969 191.417969 L 115.050781 191.855469 L 148.441406 212.738281 " fill-opacity="1" fill-rule="nonzero"/><path fill="#0b0c0c" d="M 148.441406 211.105469 L 148.441406 212.738281 L 115.050781 193.484375 L 115.050781 191.855469 L 148.441406 211.105469 " fill-opacity="1" fill-rule="nonzero"/><path fill="#484a4d" d="M 148.441406 217.167969 L 148.441406 218.046875 L 114.292969 198.359375 L 114.292969 195.847656 L 115.050781 196.285156 L 148.441406 217.167969 " fill-opacity="1" fill-rule="nonzero"/><path fill="#0b0c0c" d="M 148.441406 215.535156 L 148.441406 217.167969 L 115.050781 197.917969 L 115.050781 196.285156 L 148.441406 215.535156 " fill-opacity="1" fill-rule="nonzero"/><path fill="#484a4d" d="M 148.441406 221.597656 L 148.441406 222.476562 L 114.292969 202.789062 L 114.292969 200.28125 L 115.050781 200.71875 L 148.441406 221.597656 " fill-opacity="1" fill-rule="nonzero"/><path fill="#0b0c0c" d="M 148.441406 219.964844 L 148.441406 221.597656 L 115.050781 202.347656 L 115.050781 200.71875 L 148.441406 219.964844 " fill-opacity="1" fill-rule="nonzero"/><path fill="#484a4d" d="M 148.441406 226.03125 L 148.441406 226.910156 L 114.292969 207.21875 L 114.292969 204.710938 L 115.050781 205.148438 L 148.441406 226.03125 " fill-opacity="1" fill-rule="nonzero"/><path fill="#0b0c0c" d="M 148.441406 224.398438 L 148.441406 226.03125 L 115.050781 206.777344 L 115.050781 205.148438 L 148.441406 224.398438 " fill-opacity="1" fill-rule="nonzero"/><path fill="#484a4d" d="M 148.441406 230.464844 L 148.441406 231.339844 L 114.292969 211.652344 L 114.292969 209.140625 L 115.050781 209.582031 L 148.441406 230.464844 " fill-opacity="1" fill-rule="nonzero"/><path fill="#0b0c0c" d="M 148.441406 228.828125 L 148.441406 230.464844 L 115.050781 211.210938 L 115.050781 209.582031 L 148.441406 228.828125 " fill-opacity="1" fill-rule="nonzero"/><path fill="#484a4d" d="M 148.441406 234.898438 L 148.441406 235.773438 L 114.292969 216.085938 L 114.292969 213.574219 L 115.050781 214.011719 L 148.441406 234.898438 " fill-opacity="1" fill-rule="nonzero"/><path fill="#0b0c0c" d="M 148.441406 233.261719 L 148.441406 234.898438 L 115.050781 215.640625 L 115.050781 214.011719 L 148.441406 233.261719 " fill-opacity="1" fill-rule="nonzero"/><path fill="#191a1a" d="M 179.554688 244.664062 L 150.339844 227.820312 L 150.339844 194.128906 L 179.554688 210.976562 L 179.554688 244.664062 " fill-opacity="1" fill-rule="nonzero"/><path fill="#c83935" d="M 159.550781 228.875 L 166.425781 232.84375 L 166.425781 228.972656 L 159.550781 225.007812 L 159.550781 228.875 " fill-opacity="1" fill-rule="nonzero"/><path fill="#c83935" d="M 167.355469 229.507812 L 167.355469 233.375 L 170.34375 235.101562 L 170.34375 231.230469 L 167.355469 229.507812 " fill-opacity="1" fill-rule="nonzero"/><path fill="#0b0c0c" d="M 156.046875 202.957031 L 154.796875 202.234375 L 154.796875 214.554688 L 158.777344 216.839844 L 158.777344 215.402344 L 157.089844 210.390625 L 156.046875 202.957031 " fill-opacity="1" fill-rule="nonzero"/><path fill="#484a4d" d="M 158.773438 204.519531 L 156.046875 202.957031 L 156.042969 213.832031 L 158.777344 215.402344 L 158.773438 204.519531 " fill-opacity="1" fill-rule="nonzero"/><path fill="#bee065" d="M 156.519531 203.804688 L 156.519531 206.539062 L 158.546875 207.707031 L 158.546875 204.976562 L 156.519531 203.804688 " fill-opacity="1" fill-rule="nonzero"/><path fill="#0b0c0c" d="M 161.484375 206.097656 L 160.238281 205.375 L 160.238281 217.695312 L 164.21875 219.980469 L 164.21875 218.542969 L 162.535156 213.53125 L 161.484375 206.097656 " fill-opacity="1" fill-rule="nonzero"/><path fill="#484a4d" d="M 164.214844 207.660156 L 161.484375 206.097656 L 161.484375 216.976562 L 164.21875 218.542969 L 164.214844 207.660156 " fill-opacity="1" fill-rule="nonzero"/><path fill="#bee065" d="M 161.957031 206.945312 L 161.957031 209.679688 L 163.988281 210.847656 L 163.988281 208.117188 L 161.957031 206.945312 " fill-opacity="1" fill-rule="nonzero"/><path fill="#0b0c0c" d="M 166.925781 209.238281 L 165.675781 208.515625 L 165.675781 220.832031 L 169.65625 223.121094 L 169.65625 221.683594 L 167.972656 216.671875 L 166.925781 209.238281 " fill-opacity="1" fill-rule="nonzero"/><path fill="#484a4d" d="M 169.65625 210.800781 L 166.925781 209.238281 L 166.921875 220.113281 L 169.65625 221.683594 L 169.65625 210.800781 " fill-opacity="1" fill-rule="nonzero"/><path fill="#bee065" d="M 167.398438 210.085938 L 167.398438 212.820312 L 169.429688 213.988281 L 169.429688 211.257812 L 167.398438 210.085938 " fill-opacity="1" fill-rule="nonzero"/><path fill="#0b0c0c" d="M 172.367188 212.375 L 171.121094 211.65625 L 171.121094 223.972656 L 175.097656 226.257812 L 175.101562 224.820312 L 173.414062 219.808594 L 172.367188 212.375 " fill-opacity="1" fill-rule="nonzero"/><path fill="#484a4d" d="M 175.097656 213.941406 L 172.367188 212.375 L 172.367188 223.253906 L 175.101562 224.820312 L 175.097656 213.941406 " fill-opacity="1" fill-rule="nonzero"/><path fill="#bee065" d="M 172.839844 213.226562 L 172.839844 215.960938 L 174.867188 217.128906 L 174.867188 214.394531 L 172.839844 213.226562 " fill-opacity="1" fill-rule="nonzero"/></svg>