<svg xmlns="http://www.w3.org/2000/svg" xmlns:xlink="http://www.w3.org/1999/xlink" width="500" zoomAndPan="magnify" viewBox="0 0 375 374.999991" height="500" preserveAspectRatio="xMidYMid meet" version="1.0"><defs><clipPath id="9ca0b8d659"><path d="M 43.3125 43.3125 L 332.0625 43.3125 L 332.0625 332.0625 L 43.3125 332.0625 Z M 43.3125 43.3125 " clip-rule="nonzero"/></clipPath><clipPath id="cdf6f44444"><path d="M 62 290 L 67 290 L 67 332.0625 L 62 332.0625 Z M 62 290 " clip-rule="nonzero"/></clipPath><clipPath id="4cbc199acd"><path d="M 150 290 L 158 290 L 158 332.0625 L 150 332.0625 Z M 150 290 " clip-rule="nonzero"/></clipPath></defs><path fill="#7797a2" d="M 320.238281 167.292969 C 313.085938 156.199219 278.300781 152.832031 278.300781 152.832031 C 278.164062 151.800781 277.796875 150.792969 277.222656 149.898438 C 274.542969 145.660156 271.171875 142.929688 267.09375 141.738281 L 267.09375 128.816406 C 267.183594 128.722656 267.253906 128.609375 267.347656 128.515625 C 269.203125 126.269531 270.621094 123.75 271.539062 121.070312 C 271.539062 121.070312 281.898438 121.367188 284.625 112.292969 C 286.113281 107.339844 284.027344 103.148438 281.828125 100.375 C 288.0625 92.101562 289.070312 79.199219 284.992188 68.359375 C 280.246094 55.6875 266.980469 48.308594 258.546875 51.265625 C 258.546875 51.265625 253.414062 45.605469 243.101562 45.605469 C 231.777344 45.605469 218.191406 55.734375 213.972656 67.628906 C 210.695312 76.886719 210.628906 91.734375 216.171875 100.351562 C 213.972656 103.125 211.886719 107.320312 213.378906 112.292969 C 216.082031 121.367188 226.460938 121.070312 226.460938 121.070312 C 227.289062 123.542969 228.523438 125.882812 230.175781 127.945312 C 230.402344 128.21875 230.65625 128.515625 230.910156 128.816406 L 230.910156 141.738281 C 226.828125 142.929688 223.4375 145.660156 220.757812 149.898438 C 220.207031 150.792969 219.839844 151.800781 219.703125 152.832031 C 219.703125 152.832031 184.914062 156.199219 177.765625 167.292969 C 170.613281 178.40625 164.769531 255.886719 164.769531 255.886719 C 156.429688 251.714844 149.257812 249.425781 149.257812 249.425781 L 147.722656 243.464844 C 147.125 241.128906 145.566406 239.160156 143.414062 238.082031 C 142.929688 237.851562 142.425781 237.601562 141.855469 237.347656 L 141.855469 224.996094 C 141.855469 224.996094 153.886719 219.886719 159.933594 207.625 C 165.984375 195.339844 164.769531 158.675781 164.769531 158.675781 C 169.789062 154.160156 173.523438 147.925781 175.335938 140.339844 L 166.902344 140.640625 C 173.617188 135.460938 175.929688 125.515625 173.9375 117.609375 C 161.996094 122.214844 151.203125 123.246094 138.898438 121 C 145.359375 118.664062 149.234375 114.148438 150.722656 107.707031 C 150.722656 107.707031 101.980469 109.222656 85.9375 134.199219 C 79.269531 144.582031 78.488281 158.101562 81.261719 171.804688 C 81.261719 171.804688 73.105469 179.414062 76.886719 190.09375 C 80.691406 200.75 91.046875 198.960938 91.046875 198.960938 C 93.269531 203.269531 95.722656 207.351562 98.3125 211.085938 L 98.3125 234.597656 C 94.714844 235.765625 92.882812 236.890625 92.882812 236.890625 L 92.882812 249.425781 C 92.882812 249.425781 64.351562 257.46875 54.976562 272.546875 C 45.605469 287.628906 45.605469 329.769531 45.605469 329.769531 L 199.03125 329.769531 C 199.03125 329.769531 197.382812 302.316406 191.652344 283.984375 L 204.003906 266.316406 L 204.003906 288.0625 C 204.003906 292.921875 207.945312 296.863281 212.804688 296.863281 C 208.953125 296.863281 205.859375 299.957031 205.859375 303.804688 L 205.859375 329.769531 L 301.421875 329.769531 L 301.421875 303.394531 C 301.421875 300.183594 298.832031 297.597656 295.648438 297.597656 C 298.832031 297.597656 301.421875 295.007812 301.421875 291.820312 L 301.421875 288.519531 C 306.394531 289.347656 312.445312 289.046875 318.265625 285.382812 C 329.769531 278.09375 329.769531 242.480469 329.769531 242.480469 C 329.769531 242.480469 327.386719 178.40625 320.238281 167.292969 Z M 320.238281 167.292969 " fill-opacity="1" fill-rule="nonzero"/><path fill="#ffdba2" d="M 239.457031 158.261719 C 242.800781 163.007812 246.421875 167.957031 248.988281 172.449219 C 246.949219 176.023438 245.597656 179.324219 245.597656 182.027344 L 245.597656 197.199219 C 229.511719 193.785156 229.28125 166.121094 229.28125 166.121094 C 232.214844 162.664062 235.605469 160.003906 239.457031 158.261719 Z M 239.457031 158.261719 " fill-opacity="1" fill-rule="nonzero"/><path fill="#fbe2ae" d="M 268.722656 166.121094 C 268.722656 166.121094 268.445312 197.542969 248.988281 197.542969 C 247.796875 197.542969 246.652344 197.425781 245.597656 197.199219 L 245.597656 182.027344 C 245.597656 179.324219 246.949219 176.023438 248.988281 172.449219 C 251.554688 167.933594 255.199219 162.984375 258.546875 158.261719 C 262.394531 160.003906 265.765625 162.664062 268.722656 166.121094 Z M 254.808594 187.894531 C 256.710938 187.894531 258.246094 186.359375 258.246094 184.457031 C 258.246094 182.554688 256.710938 181.019531 254.808594 181.019531 C 252.929688 181.019531 251.371094 182.554688 251.371094 184.457031 C 251.371094 186.359375 252.929688 187.894531 254.808594 187.894531 Z M 254.808594 187.894531 " fill-opacity="1" fill-rule="nonzero"/><path fill="#655f68" d="M 221.855469 201.230469 L 222.679688 204.621094 L 222.679688 204.644531 C 220.253906 203.523438 217.226562 202.628906 214.386719 202.355469 L 210.144531 184.9375 C 209.757812 183.265625 210.789062 181.570312 212.460938 181.15625 L 213.699219 180.859375 C 215.371094 180.445312 217.066406 181.476562 217.480469 183.171875 Z M 221.855469 201.230469 " fill-opacity="1" fill-rule="nonzero"/><path fill="#4d727a" d="M 230.910156 141.738281 C 230.910156 145.75 234.917969 151.824219 239.457031 158.261719 C 235.605469 160.003906 232.214844 162.664062 229.28125 166.121094 C 227.609375 168.117188 224.378906 167.476562 223.4375 165.046875 L 220.113281 156.429688 C 219.65625 155.261719 219.519531 154.023438 219.703125 152.832031 C 219.839844 151.800781 220.207031 150.792969 220.757812 149.898438 C 223.4375 145.660156 226.828125 142.929688 230.910156 141.738281 Z M 230.910156 141.738281 " fill-opacity="1" fill-rule="nonzero"/><path fill="#4d727a" d="M 274.566406 165.046875 C 273.625 167.476562 270.394531 168.117188 268.722656 166.121094 C 265.765625 162.664062 262.394531 160.003906 258.546875 158.261719 C 263.082031 151.800781 267.09375 145.75 267.09375 141.738281 C 271.171875 142.929688 274.542969 145.660156 277.222656 149.898438 C 277.796875 150.792969 278.164062 151.800781 278.300781 152.832031 C 278.460938 154.023438 278.324219 155.261719 277.886719 156.429688 Z M 274.566406 165.046875 " fill-opacity="1" fill-rule="nonzero"/><path fill="#dee0dd" d="M 276.628906 218.714844 L 233.109375 218.714844 C 231.527344 215.53125 229.304688 213.46875 226.347656 212.667969 C 226.347656 212.667969 228.457031 210.605469 227.242188 208.039062 C 226.714844 206.914062 224.972656 205.675781 222.679688 204.644531 L 222.679688 204.621094 L 221.855469 201.230469 C 222.773438 199.078125 224.925781 197.542969 227.449219 197.542969 L 270.554688 197.542969 C 273.898438 197.542969 276.628906 200.246094 276.628906 203.589844 Z M 276.628906 218.714844 " fill-opacity="1" fill-rule="nonzero"/><path fill="#ffdba2" d="M 286.183594 297.597656 L 285.105469 304.355469 L 269.386719 304.355469 C 271.148438 302.890625 273.167969 301.722656 275.34375 300.894531 C 279.835938 299.199219 283.617188 296.015625 286.046875 291.867188 L 287.511719 289.367188 Z M 286.183594 297.597656 " fill-opacity="1" fill-rule="nonzero"/><path fill="#ffdba2" d="M 276.832031 243.925781 C 274.910156 242.847656 272.503906 243.351562 271.148438 245.09375 L 269.226562 247.570312 L 244.0625 239.433594 C 243.628906 239.296875 243.191406 239.226562 242.777344 239.226562 C 241.039062 239.226562 239.410156 240.351562 238.859375 242.089844 C 238.148438 244.269531 239.339844 246.582031 241.519531 247.292969 C 241.082031 247.15625 240.648438 247.085938 240.234375 247.085938 C 238.492188 247.085938 236.867188 248.210938 236.316406 249.953125 C 235.722656 251.738281 236.429688 253.640625 237.921875 254.628906 L 237.921875 254.648438 C 235.445312 254.949219 233.269531 256.851562 232.832031 259.578125 L 230.175781 276.628906 C 229.738281 279.261719 230.105469 281.988281 231.207031 284.417969 C 232.007812 286.230469 232.421875 288.152344 232.421875 290.078125 C 232.421875 292.1875 231.941406 294.296875 231 296.222656 L 226.988281 304.355469 L 220.230469 304.355469 L 219.039062 296.863281 L 212.230469 254.511719 L 209.597656 237.964844 L 206.503906 218.714844 L 298.832031 218.714844 L 295.511719 239.523438 C 294.160156 237.554688 292.644531 235.789062 291.410156 234.460938 C 290.539062 233.519531 289.347656 233.015625 288.132812 233.015625 C 287.445312 233.015625 286.734375 233.175781 286.089844 233.496094 C 283.800781 234.644531 282.953125 237.460938 284.191406 239.683594 L 286.433594 243.765625 C 284.578125 243.351562 282.585938 244.175781 281.601562 245.917969 L 279.148438 250.296875 C 280.339844 248.164062 279.582031 245.460938 277.429688 244.269531 Z M 276.832031 243.925781 " fill-opacity="1" fill-rule="nonzero"/><path fill="#b6b6b7" d="M 226.988281 304.355469 L 214.476562 329.769531 L 205.859375 329.769531 L 205.859375 303.804688 C 205.859375 299.957031 208.953125 296.863281 212.804688 296.863281 L 219.039062 296.863281 L 220.230469 304.355469 Z M 226.988281 304.355469 " fill-opacity="1" fill-rule="nonzero"/><path fill="#b6b6b7" d="M 301.421875 303.394531 L 301.421875 329.769531 L 252.289062 329.769531 L 264.941406 309.445312 C 266.152344 307.496094 267.644531 305.777344 269.386719 304.355469 L 285.105469 304.355469 L 286.183594 297.597656 L 295.648438 297.597656 C 298.832031 297.597656 301.421875 300.183594 301.421875 303.394531 Z M 301.421875 303.394531 " fill-opacity="1" fill-rule="nonzero"/><path fill="#93b2b8" d="M 188.238281 226.644531 C 189.429688 225.386719 191.308594 225.5 192.386719 226.601562 C 192.753906 226.921875 193.027344 227.402344 193.164062 227.953125 C 193.851562 230.886719 195.273438 234.230469 198.207031 236.042969 C 203.019531 238.996094 209.574219 237.964844 209.574219 237.964844 L 209.597656 237.964844 L 212.230469 254.511719 L 204.003906 266.316406 L 191.652344 283.984375 C 190.253906 279.421875 188.558594 275.414062 186.585938 272.546875 C 181.753906 265.535156 172.722656 259.851562 164.769531 255.886719 Z M 188.238281 226.644531 " fill-opacity="1" fill-rule="nonzero"/><path fill="#fbe2ae" d="M 149.257812 249.425781 L 92.882812 249.425781 L 92.882812 236.890625 C 92.882812 236.890625 94.714844 235.765625 98.3125 234.597656 C 102.691406 233.199219 109.679688 231.710938 119.167969 232.121094 C 129.386719 232.558594 137.179688 235.238281 141.855469 237.347656 C 142.425781 237.601562 142.929688 237.851562 143.414062 238.082031 C 145.566406 239.160156 147.125 241.128906 147.722656 243.464844 Z M 149.257812 249.425781 " fill-opacity="1" fill-rule="nonzero"/><path fill="#52a7d7" d="M 155.285156 329.769531 L 45.605469 329.769531 C 45.605469 329.769531 45.605469 287.628906 54.976562 272.546875 C 64.351562 257.46875 92.882812 249.425781 92.882812 249.425781 L 149.257812 249.425781 C 149.257812 249.425781 156.429688 251.714844 164.769531 255.886719 C 172.722656 259.851562 181.753906 265.535156 186.585938 272.546875 C 188.558594 275.414062 190.253906 279.421875 191.652344 283.984375 C 197.382812 302.316406 199.03125 329.769531 199.03125 329.769531 Z M 155.285156 329.769531 " fill-opacity="1" fill-rule="nonzero"/><path fill="#fec4b9" d="M 295.511719 239.523438 C 297.183594 241.976562 298.582031 244.726562 298.832031 247.316406 C 299.039062 249.308594 298.742188 251.234375 298.214844 252.953125 C 296.976562 256.917969 294.523438 259.851562 294.113281 260.289062 C 295.234375 258.179688 294.480469 255.496094 292.347656 254.304688 L 292.277344 254.285156 C 290.148438 253.070312 287.464844 253.847656 286.230469 255.957031 L 289.414062 250.296875 C 290.605469 248.164062 289.851562 245.460938 287.71875 244.269531 L 287.648438 244.222656 C 287.261719 243.992188 286.847656 243.855469 286.433594 243.765625 L 284.191406 239.683594 C 282.953125 237.460938 283.800781 234.644531 286.089844 233.496094 C 286.734375 233.175781 287.445312 233.015625 288.132812 233.015625 C 289.347656 233.015625 290.539062 233.519531 291.410156 234.460938 C 292.644531 235.789062 294.160156 237.554688 295.511719 239.523438 Z M 295.511719 239.523438 " fill-opacity="1" fill-rule="nonzero"/><path fill="#fec4b9" d="M 269.226562 247.570312 L 252.175781 269.589844 C 250.179688 272.160156 246.054688 271.058594 245.621094 267.851562 L 244.496094 259.667969 C 244.316406 258.429688 243.765625 257.285156 242.917969 256.414062 C 242.433594 255.910156 241.886719 255.496094 241.242188 255.199219 C 240.394531 254.789062 239.523438 254.605469 238.652344 254.605469 C 238.402344 254.605469 238.171875 254.628906 237.921875 254.648438 L 237.921875 254.628906 C 236.429688 253.640625 235.722656 251.738281 236.316406 249.953125 C 236.867188 248.210938 238.492188 247.085938 240.234375 247.085938 C 240.648438 247.085938 241.082031 247.15625 241.519531 247.292969 C 239.339844 246.582031 238.148438 244.269531 238.859375 242.089844 C 239.410156 240.351562 241.039062 239.226562 242.777344 239.226562 C 243.191406 239.226562 243.628906 239.296875 244.0625 239.433594 Z M 269.226562 247.570312 " fill-opacity="1" fill-rule="nonzero"/><path fill="#fec4b9" d="M 81.261719 171.804688 C 83.140625 181.085938 86.648438 190.4375 91.046875 198.960938 C 91.046875 198.960938 80.691406 200.75 76.886719 190.09375 C 73.105469 179.414062 81.261719 171.804688 81.261719 171.804688 Z M 81.261719 171.804688 " fill-opacity="1" fill-rule="nonzero"/><path fill="#fec4b9" d="M 146.851562 200.085938 C 143.574219 200.246094 140.800781 197.679688 140.707031 194.402344 L 140.339844 177.808594 C 140.25 174.144531 143.207031 171.140625 146.851562 171.140625 C 146.941406 171.140625 147.011719 171.140625 147.101562 171.140625 C 150.746094 171.277344 153.585938 174.394531 153.359375 178.039062 L 152.351562 194.609375 C 152.257812 196.074219 151.640625 197.402344 150.652344 198.390625 C 149.667969 199.375 148.316406 200.015625 146.851562 200.085938 Z M 146.851562 200.085938 " fill-opacity="1" fill-rule="nonzero"/><path fill="#fec4b9" d="M 222.335938 105.945312 L 225.980469 119.511719 C 226.117188 120.039062 226.277344 120.566406 226.460938 121.070312 C 226.460938 121.070312 216.082031 121.367188 213.378906 112.292969 C 211.886719 107.320312 213.972656 103.125 216.171875 100.351562 C 217.753906 102.828125 219.792969 104.773438 222.335938 105.945312 Z M 222.335938 105.945312 " fill-opacity="1" fill-rule="nonzero"/><path fill="#ffd7d2" d="M 267.09375 128.816406 L 267.09375 141.832031 C 267.023438 145.839844 263.058594 151.847656 258.546875 158.261719 C 255.199219 162.984375 251.554688 167.933594 248.988281 172.449219 C 246.421875 167.957031 242.800781 163.007812 239.457031 158.261719 C 234.917969 151.824219 230.910156 145.75 230.910156 141.738281 L 230.910156 128.816406 C 234.550781 133.121094 240.695312 138.300781 248.988281 138.300781 C 257.332031 138.300781 263.449219 133.121094 267.09375 128.816406 Z M 267.09375 128.816406 " fill-opacity="1" fill-rule="nonzero"/><path fill="#fec4b9" d="M 281.828125 100.375 C 284.027344 103.148438 286.113281 107.339844 284.625 112.292969 C 281.898438 121.367188 271.539062 121.070312 271.539062 121.070312 C 271.722656 120.566406 271.882812 120.015625 272.019531 119.488281 L 275.640625 105.945312 L 275.664062 105.945312 C 278.09375 104.5 280.15625 102.597656 281.828125 100.375 Z M 281.828125 100.375 " fill-opacity="1" fill-rule="nonzero"/><path fill="#ffd7d2" d="M 206.503906 218.714844 L 209.597656 237.964844 L 209.574219 237.964844 C 209.574219 237.964844 203.019531 238.996094 198.207031 236.042969 C 195.273438 234.230469 193.851562 230.886719 193.164062 227.953125 C 193.027344 227.402344 192.753906 226.921875 192.386719 226.601562 L 192.410156 226.578125 C 192.410156 226.578125 197.726562 216.082031 202.972656 208.929688 L 202.972656 208.910156 C 205.425781 205.585938 207.855469 203.019531 209.710938 202.558594 C 211.085938 202.214844 212.691406 202.195312 214.386719 202.355469 C 217.226562 202.628906 220.253906 203.523438 222.679688 204.644531 C 224.972656 205.675781 226.714844 206.914062 227.242188 208.039062 C 228.457031 210.605469 226.347656 212.667969 226.347656 212.667969 C 229.304688 213.46875 231.527344 215.53125 233.109375 218.714844 Z M 206.503906 218.714844 " fill-opacity="1" fill-rule="nonzero"/><path fill="#ffd7d2" d="M 292.347656 254.304688 C 294.480469 255.496094 295.234375 258.179688 294.113281 260.289062 C 294.089844 260.332031 294.066406 260.355469 294.066406 260.355469 L 291.226562 265.421875 C 292.417969 263.265625 295.121094 262.511719 297.273438 263.703125 C 298.71875 264.527344 299.542969 266.015625 299.542969 267.574219 C 299.542969 268.332031 299.335938 269.109375 298.925781 269.820312 L 290.355469 284.488281 L 287.511719 289.347656 L 287.511719 289.367188 L 286.046875 291.867188 C 283.617188 296.015625 279.835938 299.199219 275.34375 300.894531 C 273.167969 301.722656 271.148438 302.890625 269.386719 304.355469 C 267.644531 305.777344 266.152344 307.496094 264.941406 309.445312 L 252.289062 329.769531 L 214.476562 329.769531 L 226.988281 304.355469 L 231 296.222656 C 231.941406 294.296875 232.421875 292.1875 232.421875 290.078125 C 232.421875 288.152344 232.007812 286.230469 231.207031 284.417969 C 230.105469 281.988281 229.738281 279.261719 230.175781 276.628906 L 232.832031 259.578125 C 233.269531 256.851562 235.445312 254.949219 237.921875 254.648438 C 238.171875 254.628906 238.402344 254.605469 238.652344 254.605469 C 239.523438 254.605469 240.394531 254.789062 241.242188 255.199219 C 241.886719 255.496094 242.433594 255.910156 242.917969 256.414062 C 243.765625 257.285156 244.316406 258.429688 244.496094 259.667969 L 245.621094 267.851562 C 246.054688 271.058594 250.179688 272.160156 252.175781 269.589844 L 269.226562 247.570312 L 271.148438 245.09375 C 272.503906 243.351562 274.910156 242.847656 276.832031 243.925781 L 277.429688 244.269531 C 279.582031 245.460938 280.339844 248.164062 279.148438 250.296875 L 281.601562 245.917969 C 282.585938 244.175781 284.578125 243.351562 286.433594 243.765625 C 286.847656 243.855469 287.261719 243.992188 287.648438 244.222656 L 287.71875 244.269531 C 289.851562 245.460938 290.605469 248.164062 289.414062 250.296875 L 286.230469 255.957031 C 287.464844 253.847656 290.148438 253.070312 292.277344 254.285156 Z M 292.347656 254.304688 " fill-opacity="1" fill-rule="nonzero"/><path fill="#ffd7d2" d="M 140.707031 194.402344 C 140.800781 197.679688 143.574219 200.246094 146.851562 200.085938 C 148.316406 200.015625 149.667969 199.375 150.652344 198.390625 C 151.640625 197.402344 152.257812 196.074219 152.351562 194.609375 L 153.359375 178.039062 L 156.0625 168.070312 C 156.796875 165.414062 158.558594 163.191406 160.875 161.675781 C 162.25 160.785156 163.554688 159.796875 164.769531 158.675781 C 164.769531 158.675781 165.984375 195.339844 159.933594 207.625 C 153.886719 219.886719 141.855469 224.996094 141.855469 224.996094 L 141.855469 237.347656 C 137.179688 235.238281 129.386719 232.558594 119.167969 232.121094 C 109.679688 231.710938 102.691406 233.199219 98.3125 234.597656 L 98.3125 211.085938 C 101.246094 215.324219 104.339844 219.128906 107.480469 222.335938 C 114.238281 219.3125 119.167969 214.867188 122.558594 209.230469 C 123.132812 212.917969 124.300781 216.472656 126.226562 219.886719 C 133.328125 214.019531 140.707031 205.082031 140.707031 194.402344 Z M 140.707031 194.402344 " fill-opacity="1" fill-rule="nonzero"/><path fill="#ffd7d2" d="M 276.421875 92.332031 C 277.519531 95.195312 277.679688 98.335938 276.902344 101.292969 L 275.664062 105.945312 L 275.640625 105.945312 L 272.019531 119.488281 C 271.882812 120.015625 271.722656 120.566406 271.539062 121.070312 C 270.621094 123.75 269.203125 126.269531 267.347656 128.515625 C 267.253906 128.609375 267.183594 128.722656 267.09375 128.816406 C 263.449219 133.121094 257.332031 138.300781 248.988281 138.300781 C 240.695312 138.300781 234.550781 133.121094 230.910156 128.816406 C 230.65625 128.515625 230.402344 128.21875 230.175781 127.945312 C 228.523438 125.882812 227.289062 123.542969 226.460938 121.070312 C 226.277344 120.566406 226.117188 120.039062 225.980469 119.511719 L 222.335938 105.945312 L 221.285156 101.957031 C 220.503906 99.070312 222.085938 96.089844 224.882812 95.011719 C 238.652344 89.648438 248.578125 80.367188 254.671875 67.191406 C 253.734375 75.96875 251.007812 84.195312 245.621094 91.550781 C 255.589844 89.261719 263.058594 83.324219 268.675781 74.683594 C 268.125 81.949219 266.109375 88.070312 261.617188 92.261719 C 267.140625 93.203125 271.882812 92.675781 275.550781 90.0625 Z M 276.421875 92.332031 " fill-opacity="1" fill-rule="nonzero"/><path fill="#655f68" d="M 166.902344 140.640625 L 175.335938 140.339844 C 173.523438 147.925781 169.789062 154.160156 164.769531 158.675781 C 163.554688 159.796875 162.25 160.785156 160.875 161.675781 C 158.558594 163.191406 156.796875 165.414062 156.0625 168.070312 L 153.359375 178.039062 C 153.585938 174.394531 150.746094 171.277344 147.101562 171.140625 C 147.011719 171.140625 146.941406 171.140625 146.851562 171.140625 C 143.207031 171.140625 140.25 174.144531 140.339844 177.808594 L 140.707031 194.402344 C 140.707031 205.082031 133.328125 214.019531 126.226562 219.886719 C 124.300781 216.472656 123.132812 212.917969 122.558594 209.230469 C 119.167969 214.867188 114.238281 219.3125 107.480469 222.335938 C 104.339844 219.128906 101.246094 215.324219 98.3125 211.085938 C 95.722656 207.351562 93.269531 203.269531 91.046875 198.960938 C 86.648438 190.4375 83.140625 181.085938 81.261719 171.804688 C 78.488281 158.101562 79.269531 144.582031 85.9375 134.199219 C 101.980469 109.222656 150.722656 107.707031 150.722656 107.707031 C 149.234375 114.148438 145.359375 118.664062 138.898438 121 C 151.203125 123.246094 161.996094 122.214844 173.9375 117.609375 C 175.929688 125.515625 173.617188 135.460938 166.902344 140.640625 Z M 166.902344 140.640625 " fill-opacity="1" fill-rule="nonzero"/><path fill="#604533" d="M 276.902344 101.292969 C 277.679688 98.335938 277.519531 95.195312 276.421875 92.332031 L 275.550781 90.0625 C 271.882812 92.675781 267.140625 93.203125 261.617188 92.261719 C 266.109375 88.070312 268.125 81.949219 268.675781 74.683594 C 263.058594 83.324219 255.589844 89.261719 245.621094 91.550781 C 251.007812 84.195312 253.734375 75.96875 254.671875 67.191406 C 248.578125 80.367188 238.652344 89.648438 224.882812 95.011719 C 222.085938 96.089844 220.503906 99.070312 221.285156 101.957031 L 222.335938 105.945312 C 219.792969 104.773438 217.753906 102.828125 216.171875 100.351562 C 210.628906 91.734375 210.695312 76.886719 213.972656 67.628906 C 218.191406 55.734375 231.777344 45.605469 243.101562 45.605469 C 253.414062 45.605469 258.546875 51.265625 258.546875 51.265625 C 266.980469 48.308594 280.246094 55.6875 284.992188 68.359375 C 289.070312 79.199219 288.0625 92.101562 281.828125 100.375 C 280.15625 102.597656 278.09375 104.5 275.664062 105.945312 Z M 276.902344 101.292969 " fill-opacity="1" fill-rule="nonzero"/><path fill="#655f68" d="M 258.246094 184.457031 C 258.246094 184.910156 258.160156 185.351562 257.984375 185.773438 C 257.8125 186.191406 257.5625 186.566406 257.242188 186.886719 C 256.917969 187.210938 256.546875 187.457031 256.125 187.632812 C 255.703125 187.804688 255.265625 187.894531 254.808594 187.894531 C 254.355469 187.894531 253.917969 187.804688 253.496094 187.632812 C 253.074219 187.457031 252.703125 187.210938 252.378906 186.886719 C 252.058594 186.566406 251.808594 186.191406 251.632812 185.773438 C 251.460938 185.351562 251.371094 184.910156 251.371094 184.457031 C 251.371094 184 251.460938 183.5625 251.632812 183.140625 C 251.808594 182.71875 252.058594 182.347656 252.378906 182.027344 C 252.703125 181.703125 253.074219 181.453125 253.496094 181.28125 C 253.917969 181.105469 254.355469 181.019531 254.808594 181.019531 C 255.265625 181.019531 255.703125 181.105469 256.125 181.28125 C 256.546875 181.453125 256.917969 181.703125 257.242188 182.027344 C 257.5625 182.347656 257.8125 182.71875 257.984375 183.140625 C 258.160156 183.5625 258.246094 184 258.246094 184.457031 Z M 258.246094 184.457031 " fill-opacity="1" fill-rule="nonzero"/><path fill="#f7b6ad" d="M 267.09375 128.816406 L 267.09375 141.832031 C 263.496094 143.183594 259.601562 143.941406 255.519531 143.941406 C 245.710938 143.941406 236.890625 139.632812 230.910156 132.777344 L 230.910156 128.816406 C 234.550781 133.121094 240.695312 138.300781 248.988281 138.300781 C 257.332031 138.300781 263.449219 133.121094 267.09375 128.816406 Z M 267.09375 128.816406 " fill-opacity="1" fill-rule="nonzero"/><path fill="#4d727a" d="M 202.972656 208.929688 C 202.972656 208.929688 199.632812 194.183594 194.90625 186.0625 C 194.140625 184.75 192.398438 184.398438 191.132812 185.242188 C 190.207031 185.863281 189.773438 187.003906 190.035156 188.089844 C 193.144531 201.152344 194.039062 214.847656 192.414062 226.574219 C 196.382812 219.074219 199.277344 214.035156 202.972656 208.929688 Z M 202.972656 208.929688 " fill-opacity="1" fill-rule="nonzero"/><path fill="#2f84b9" d="M 64.441406 329.726562 L 64.441406 294.757812 C 64.441406 293.578125 63.484375 292.621094 62.308594 292.621094 C 61.171875 292.621094 60.238281 293.515625 60.175781 294.648438 C 59.359375 310.277344 58.167969 325.128906 52.089844 329.820312 Z M 64.441406 329.726562 " fill-opacity="1" fill-rule="nonzero"/><path fill="#2f84b9" d="M 155.285156 329.769531 L 152.925781 295.667969 C 152.8125 294.019531 154.121094 292.621094 155.769531 292.621094 C 157.25 292.621094 158.476562 293.757812 158.609375 295.230469 C 159.890625 309.410156 162.179688 322.4375 169.5 329.722656 Z M 155.285156 329.769531 " fill-opacity="1" fill-rule="nonzero"/><path fill="#4d727a" d="M 316.933594 239.558594 C 310.335938 238.902344 304.472656 240.132812 299.453125 243.199219 C 298.285156 243.914062 297.964844 245.46875 298.789062 246.5625 C 299.480469 247.480469 300.765625 247.777344 301.742188 247.171875 C 305.945312 244.558594 310.789062 243.558594 316.480469 244.121094 C 317.792969 244.222656 318.863281 243.320312 318.988281 242.0625 C 319.113281 240.808594 318.191406 239.679688 316.933594 239.558594 Z M 316.933594 239.558594 " fill-opacity="1" fill-rule="nonzero"/><path fill="#4d727a" d="M 319.9375 254.742188 C 314.519531 251.097656 307.886719 249.636719 300.210938 250.394531 C 298.925781 250.519531 298.03125 251.742188 298.226562 253.019531 C 298.410156 254.246094 299.535156 255.0625 300.773438 254.945312 C 307.320312 254.324219 312.902344 255.527344 317.378906 258.542969 C 317.773438 258.808594 318.214844 258.933594 318.65625 258.933594 C 319.390625 258.933594 320.117188 258.582031 320.558594 257.925781 C 321.265625 256.871094 320.988281 255.449219 319.9375 254.742188 Z M 319.9375 254.742188 " fill-opacity="1" fill-rule="nonzero"/><path fill="#4d727a" d="M 298.832031 218.714844 L 305.5 190.25 C 305.796875 188.980469 304.953125 187.722656 303.660156 187.519531 C 303.640625 187.515625 303.621094 187.511719 303.601562 187.507812 C 302.609375 187.351562 301.5 187.816406 301.210938 188.777344 C 298.808594 196.804688 290.574219 217.144531 287.355469 218.703125 Z M 298.832031 218.714844 " fill-opacity="1" fill-rule="nonzero"/><path fill="#3a322b" d="M 258.253906 184.457031 C 258.253906 184.914062 258.167969 185.351562 257.992188 185.773438 C 257.820312 186.195312 257.570312 186.566406 257.25 186.886719 C 256.925781 187.210938 256.554688 187.457031 256.132812 187.632812 C 255.714844 187.804688 255.273438 187.894531 254.820312 187.894531 C 254.363281 187.894531 253.925781 187.804688 253.503906 187.632812 C 253.085938 187.457031 252.710938 187.210938 252.390625 186.886719 C 252.070312 186.566406 251.820312 186.195312 251.644531 185.773438 C 251.472656 185.351562 251.382812 184.914062 251.382812 184.457031 C 251.382812 184.003906 251.472656 183.566406 251.644531 183.144531 C 251.820312 182.722656 252.070312 182.351562 252.390625 182.03125 C 252.710938 181.707031 253.085938 181.460938 253.503906 181.285156 C 253.925781 181.109375 254.363281 181.023438 254.820312 181.023438 C 255.273438 181.023438 255.714844 181.109375 256.132812 181.285156 C 256.554688 181.460938 256.925781 181.707031 257.25 182.03125 C 257.570312 182.351562 257.820312 182.722656 257.992188 183.144531 C 258.167969 183.566406 258.253906 184.003906 258.253906 184.457031 Z M 258.253906 184.457031 " fill-opacity="1" fill-rule="nonzero"/><g clip-path="url(#9ca0b8d659)"><path fill="#3a322b" d="M 322.164062 166.0625 C 315.292969 155.40625 287.75 151.589844 280.144531 150.730469 C 279.902344 150.011719 279.578125 149.320312 279.164062 148.671875 C 276.546875 144.542969 273.261719 141.671875 269.378906 140.117188 L 269.378906 129.625 C 270.933594 127.691406 272.179688 125.574219 273.117188 123.304688 C 277.601562 122.910156 284.566406 120.460938 286.816406 112.949219 C 288.082031 108.71875 287.324219 104.402344 284.644531 100.367188 C 290.625 91.183594 291.035156 77.949219 287.144531 67.550781 C 282.472656 55.0625 269.21875 46.320312 259.140625 48.707031 C 256.976562 46.890625 251.636719 43.3125 243.105469 43.3125 C 230.660156 43.3125 216.328125 54.101562 211.8125 66.875 C 208.484375 76.289062 208.386719 90.765625 213.492188 100.164062 C 210.703125 104.253906 209.890625 108.644531 211.175781 112.945312 C 213.425781 120.453125 220.386719 122.90625 224.871094 123.296875 C 225.773438 125.507812 226.9375 127.554688 228.398438 129.378906 C 228.46875 129.46875 228.542969 129.558594 228.617188 129.644531 L 228.617188 140.113281 C 224.738281 141.667969 221.449219 144.539062 218.832031 148.667969 C 218.421875 149.320312 218.09375 150.011719 217.851562 150.726562 C 210.246094 151.589844 182.699219 155.40625 175.835938 166.058594 C 169.195312 176.359375 164.050781 236.113281 162.761719 252.351562 C 157.585938 249.949219 153.214844 248.355469 151.167969 247.652344 L 149.957031 242.890625 C 149.1875 239.886719 147.171875 237.382812 144.429688 236.027344 C 144.351562 235.988281 144.238281 235.9375 144.15625 235.898438 L 144.15625 226.429688 C 147.65625 224.632812 156.824219 219.132812 161.996094 208.625 C 167.726562 197.003906 167.257812 165.78125 167.105469 159.625 C 172.179688 154.773438 175.765625 148.40625 177.574219 140.871094 C 177.738281 140.175781 177.570312 139.441406 177.121094 138.886719 C 176.667969 138.335938 175.921875 137.992188 175.265625 138.046875 L 172.414062 138.144531 C 176.484375 132.425781 178.027344 124.457031 176.175781 117.042969 C 176.015625 116.40625 175.589844 115.863281 175.007812 115.5625 C 174.421875 115.257812 173.734375 115.222656 173.128906 115.457031 C 163.855469 119.035156 155.265625 120.386719 146.066406 119.640625 C 149.539062 116.851562 151.84375 113.035156 152.949219 108.222656 C 153.109375 107.53125 152.9375 106.804688 152.488281 106.257812 C 152.035156 105.710938 151.382812 105.445312 150.644531 105.421875 C 148.605469 105.484375 100.515625 107.269531 84.023438 132.960938 C 77.285156 143.453125 76.320312 157.089844 78.90625 170.96875 C 76.738281 173.390625 71.1875 180.886719 74.738281 190.855469 C 77.734375 199.261719 84.664062 201.40625 89.277344 201.40625 C 89.464844 201.40625 89.628906 201.390625 89.808594 201.382812 C 91.742188 205.027344 93.835938 208.503906 96.035156 211.746094 L 96.035156 232.964844 C 93.304688 233.96875 91.832031 234.839844 91.683594 234.933594 C 91.003906 235.347656 90.585938 236.089844 90.585938 236.890625 L 90.585938 247.726562 C 84.175781 249.738281 61.523438 257.660156 53.027344 271.332031 C 43.421875 286.789062 43.3125 328.023438 43.3125 329.773438 C 43.3125 331.039062 44.335938 332.066406 45.605469 332.066406 C 46.871094 332.066406 47.894531 331.039062 47.894531 329.773438 C 47.894531 329.359375 48 288.109375 56.921875 273.75 C 65.230469 260.371094 90.292969 252.585938 93.207031 251.722656 L 148.886719 251.722656 C 151.972656 252.757812 175.941406 261.128906 184.691406 273.84375 C 194.09375 287.5 196.710938 329.488281 196.734375 329.910156 C 196.804688 331.128906 197.816406 332.066406 199.019531 332.066406 C 199.066406 332.066406 199.113281 332.0625 199.160156 332.058594 C 200.425781 331.984375 201.386719 330.898438 201.308594 329.636719 C 201.226562 328.253906 199.628906 302.632812 194.167969 284.378906 L 201.710938 273.578125 L 201.710938 288.066406 C 201.710938 291.8125 203.59375 295.113281 206.449219 297.121094 C 204.679688 298.804688 203.558594 301.167969 203.558594 303.792969 L 203.558594 329.769531 C 203.558594 331.039062 204.582031 332.0625 205.851562 332.0625 C 207.117188 332.0625 208.144531 331.039062 208.144531 329.769531 L 208.144531 303.792969 C 208.144531 301.230469 210.234375 299.144531 212.800781 299.144531 L 217.070312 299.144531 L 217.964844 304.722656 C 218.144531 305.835938 219.101562 306.652344 220.226562 306.652344 L 223.296875 306.652344 L 212.410156 328.761719 C 211.851562 329.894531 212.316406 331.269531 213.453125 331.828125 C 213.78125 331.988281 214.125 332.066406 214.464844 332.066406 C 215.308594 332.066406 216.125 331.59375 216.519531 330.785156 L 233.042969 297.226562 C 235.175781 292.898438 235.265625 287.894531 233.292969 283.484375 C 232.378906 281.441406 232.078125 279.1875 232.421875 276.972656 L 235.089844 259.925781 C 235.265625 258.785156 235.957031 257.828125 236.980469 257.296875 C 238.003906 256.765625 239.191406 256.746094 240.226562 257.25 C 241.308594 257.777344 242.046875 258.800781 242.214844 259.988281 L 243.339844 268.152344 C 243.675781 270.578125 245.355469 272.476562 247.71875 273.105469 C 250.097656 273.734375 252.488281 272.921875 253.984375 270.988281 L 272.957031 246.488281 C 273.601562 245.644531 274.785156 245.40625 275.707031 245.925781 L 276.3125 246.265625 C 276.8125 246.542969 277.171875 247 277.328125 247.554688 C 277.480469 248.105469 277.414062 248.683594 277.132812 249.183594 L 265.210938 270.441406 C 264.589844 271.542969 264.984375 272.941406 266.089844 273.5625 C 267.191406 274.175781 268.589844 273.789062 269.207031 272.683594 L 281.128906 251.429688 C 281.128906 251.429688 281.132812 251.425781 281.136719 251.421875 C 281.136719 251.417969 281.140625 251.410156 281.140625 251.40625 L 283.585938 247.046875 C 284.167969 246.015625 285.480469 245.644531 286.585938 246.261719 C 287.089844 246.539062 287.449219 247 287.605469 247.550781 C 287.757812 248.101562 287.6875 248.679688 287.410156 249.179688 L 273.65625 273.707031 C 273.035156 274.808594 273.429688 276.210938 274.53125 276.828125 C 274.886719 277.027344 275.269531 277.121094 275.652344 277.121094 C 276.453125 277.121094 277.230469 276.699219 277.652344 275.949219 L 288.222656 257.097656 C 288.222656 257.09375 288.226562 257.09375 288.226562 257.09375 C 288.808594 256.058594 290.128906 255.691406 291.226562 256.308594 C 291.726562 256.585938 292.089844 257.042969 292.242188 257.597656 C 292.398438 258.148438 292.328125 258.726562 292.050781 259.226562 L 289.214844 264.285156 C 289.214844 264.285156 289.210938 264.285156 289.207031 264.289062 C 289.207031 264.289062 289.207031 264.292969 289.207031 264.292969 L 281.355469 278.289062 C 280.734375 279.394531 281.128906 280.792969 282.234375 281.410156 C 282.589844 281.609375 282.972656 281.703125 283.351562 281.703125 C 284.15625 281.703125 284.933594 281.28125 285.355469 280.53125 L 293.210938 266.527344 C 293.789062 265.496094 295.105469 265.132812 296.136719 265.703125 C 296.640625 265.988281 297.003906 266.453125 297.15625 267.011719 C 297.308594 267.574219 297.230469 268.160156 296.941406 268.660156 L 285.566406 288.125 C 285.5625 288.125 285.5625 288.128906 285.558594 288.132812 L 284.050781 290.714844 C 281.898438 294.394531 278.519531 297.253906 274.527344 298.761719 C 272.070312 299.6875 269.796875 301.035156 267.796875 302.710938 C 267.78125 302.726562 267.761719 302.742188 267.746094 302.757812 C 265.894531 304.316406 264.277344 306.15625 262.992188 308.222656 L 250.339844 328.558594 C 249.671875 329.632812 250 331.046875 251.074219 331.714844 C 251.449219 331.949219 251.867188 332.058594 252.28125 332.058594 C 253.046875 332.058594 253.792969 331.675781 254.226562 330.980469 L 266.878906 310.644531 C 267.816406 309.144531 268.996094 307.820312 270.308594 306.648438 L 285.097656 306.648438 C 286.222656 306.648438 287.179688 305.832031 287.359375 304.71875 L 288.132812 299.890625 L 295.628906 299.890625 C 297.558594 299.890625 299.128906 301.460938 299.128906 303.390625 L 299.128906 329.769531 C 299.128906 331.035156 300.152344 332.058594 301.421875 332.058594 C 302.6875 332.058594 303.710938 331.035156 303.710938 329.769531 L 303.710938 303.394531 C 303.710938 301.121094 302.761719 299.074219 301.246094 297.605469 C 302.761719 296.136719 303.710938 294.085938 303.710938 291.816406 L 303.710938 291.132812 C 304.4375 291.1875 305.167969 291.226562 305.921875 291.226562 C 310.203125 291.226562 314.898438 290.226562 319.488281 287.320312 C 331.699219 279.585938 332.042969 246.257812 332.042969 242.394531 C 331.808594 235.769531 329.441406 177.359375 322.164062 166.0625 Z M 87.875 135.433594 C 100.726562 115.417969 136.527344 111.078125 147.527344 110.207031 C 145.820312 114.339844 142.714844 117.175781 138.117188 118.851562 C 137.144531 119.203125 136.53125 120.164062 136.617188 121.195312 C 136.703125 122.226562 137.472656 123.070312 138.488281 123.257812 C 150.363281 125.414062 160.867188 124.628906 172.183594 120.6875 C 172.914062 126.953125 171.003906 134.574219 165.507812 138.8125 C 164.71875 139.421875 164.414062 140.46875 164.753906 141.40625 C 165.089844 142.339844 166 143.007812 166.988281 142.917969 L 172.289062 142.738281 C 169.933594 150.011719 165.59375 155.855469 159.625 159.757812 C 156.742188 161.648438 154.695312 164.390625 153.855469 167.476562 L 152.832031 171.238281 C 151.285156 169.792969 149.324219 168.929688 147.183594 168.84375 C 144.835938 168.746094 142.386719 169.675781 140.660156 171.375 C 138.9375 173.074219 137.980469 175.433594 138.035156 177.847656 L 138.425781 194.414062 C 138.417969 203.792969 131.984375 211.5625 126.957031 216.210938 C 125.9375 213.890625 125.226562 211.4375 124.832031 208.878906 C 124.691406 207.925781 123.960938 207.167969 123.015625 206.980469 C 122.074219 206.78125 121.105469 207.21875 120.609375 208.039062 C 117.578125 213.054688 113.441406 216.828125 107.992188 219.546875 C 102.574219 213.742188 97.351562 206.191406 93.027344 197.839844 C 93.003906 197.796875 92.988281 197.746094 92.960938 197.703125 C 82.40625 177.25 77.257812 151.972656 87.875 135.433594 Z M 142.621094 177.746094 C 142.59375 176.570312 143.042969 175.46875 143.878906 174.644531 C 144.722656 173.816406 145.839844 173.398438 147.011719 173.425781 C 148.160156 173.472656 149.214844 173.960938 149.984375 174.8125 C 150.753906 175.660156 151.140625 176.757812 151.070312 177.898438 L 150.070312 194.476562 C 149.964844 196.269531 148.523438 197.691406 146.730469 197.785156 C 145.777344 197.851562 144.84375 197.5 144.136719 196.84375 C 143.429688 196.191406 143.035156 195.300781 143.011719 194.34375 Z M 79.054688 189.320312 C 77.203125 184.117188 78.625 179.769531 80.230469 176.949219 C 81.953125 183.675781 84.441406 190.355469 87.441406 196.667969 C 84.707031 196.238281 80.949219 194.644531 79.054688 189.320312 Z M 100.617188 217.988281 C 102.328125 220.128906 104.074219 222.125 105.839844 223.929688 C 106.28125 224.378906 106.875 224.617188 107.480469 224.617188 C 107.796875 224.617188 108.113281 224.554688 108.410156 224.417969 C 113.667969 222.074219 118.046875 218.8125 121.492188 214.6875 C 122.183594 216.886719 123.101562 219.003906 124.234375 221.011719 C 124.570312 221.605469 125.144531 222.015625 125.816406 222.140625 C 126.484375 222.261719 127.167969 222.085938 127.6875 221.652344 C 132.367188 217.789062 139.621094 210.515625 142.121094 201.058594 C 143.429688 201.910156 144.945312 202.378906 146.53125 202.378906 C 146.675781 202.378906 146.816406 202.371094 146.960938 202.367188 C 151.097656 202.152344 154.398438 198.878906 154.644531 194.753906 L 155.628906 178.414062 L 158.277344 168.679688 C 158.824219 166.671875 160.195312 164.867188 162.136719 163.59375 C 162.285156 163.496094 162.425781 163.378906 162.574219 163.277344 C 162.664062 173.351562 162.386719 197.464844 157.882812 206.597656 C 154.160156 214.160156 147.925781 218.847656 144.15625 221.152344 L 144.15625 215.691406 C 144.15625 214.425781 143.128906 213.398438 141.863281 213.398438 C 140.597656 213.398438 139.570312 214.425781 139.570312 215.691406 L 139.570312 233.941406 C 134.738281 232.113281 127.816406 230.199219 119.265625 229.832031 C 111.386719 229.492188 105.15625 230.410156 100.617188 231.558594 Z M 95.167969 247.136719 L 95.167969 238.285156 C 97.976562 236.972656 106.085938 233.863281 119.066406 234.414062 C 130.269531 234.894531 138.492188 238.203125 142.394531 240.136719 C 143.941406 240.898438 145.078125 242.320312 145.511719 244.027344 L 146.308594 247.136719 Z M 275.292969 151.121094 C 276.140625 152.46875 276.3125 154.140625 275.75 155.605469 L 272.425781 164.226562 C 272.191406 164.828125 271.636719 164.964844 271.472656 164.992188 C 271.246094 165.039062 270.800781 165.042969 270.460938 164.640625 C 270.425781 164.601562 270.386719 164.566406 270.351562 164.527344 C 270.347656 164.519531 270.34375 164.519531 270.339844 164.515625 C 267.820312 161.570312 264.984375 159.214844 261.898438 157.445312 C 265.152344 152.75 267.777344 148.523438 268.835938 144.898438 C 271.324219 146.171875 273.453125 148.222656 275.292969 151.121094 Z M 248.996094 195.25 C 248.613281 195.25 248.25 195.21875 247.886719 195.191406 L 247.886719 182.019531 C 247.886719 177.207031 253.667969 169.074219 258.773438 161.890625 C 258.933594 161.664062 259.085938 161.449219 259.246094 161.222656 C 261.835938 162.652344 264.226562 164.582031 266.390625 166.992188 C 266.160156 171.859375 264.261719 195.25 248.996094 195.25 Z M 274.328125 216.425781 L 234.429688 216.425781 C 233.128906 214.273438 231.53125 212.617188 229.617188 211.542969 C 230.023438 210.253906 230.082031 208.699219 229.304688 207.046875 C 228.625 205.609375 226.894531 204.230469 224.667969 203.070312 L 224.304688 201.574219 C 224.992188 200.515625 226.144531 199.832031 227.4375 199.832031 L 270.550781 199.832031 C 272.632812 199.832031 274.324219 201.519531 274.324219 203.597656 L 274.324219 216.425781 Z M 206.917969 235.847656 C 204.863281 235.855469 201.824219 235.574219 199.414062 234.089844 C 197.019531 232.617188 195.90625 229.65625 195.394531 227.429688 C 195.316406 227.089844 195.171875 226.777344 195.03125 226.46875 C 198.03125 220.679688 201.636719 214.652344 204.71875 210.417969 C 204.726562 210.40625 204.730469 210.398438 204.738281 210.390625 C 207.027344 207.246094 209.023438 205.089844 210.25 204.789062 C 215.496094 203.53125 224.347656 207.347656 225.160156 209.003906 C 225.636719 210.011719 224.882812 210.878906 224.75 211.015625 C 224.164062 211.589844 223.929688 212.429688 224.128906 213.226562 C 224.332031 214.019531 224.941406 214.644531 225.734375 214.863281 C 226.796875 215.164062 227.738281 215.691406 228.578125 216.425781 L 206.492188 216.425781 C 205.820312 216.425781 205.183594 216.71875 204.746094 217.234375 C 204.3125 217.746094 204.121094 218.421875 204.226562 219.082031 Z M 212.382812 184.394531 C 212.3125 184.101562 212.414062 183.875 212.480469 183.769531 C 212.546875 183.65625 212.707031 183.460938 213 183.386719 L 214.234375 183.089844 C 214.53125 183.015625 214.757812 183.121094 214.867188 183.1875 C 214.980469 183.253906 215.175781 183.414062 215.246094 183.707031 L 219.460938 201.046875 C 218.402344 200.746094 217.320312 200.503906 216.25 200.324219 Z M 243.722656 92.816406 C 244.246094 93.613281 245.21875 93.992188 246.148438 93.785156 C 253.234375 92.148438 259.421875 88.667969 264.636719 83.398438 C 263.566406 86.339844 262.046875 88.71875 260.050781 90.585938 C 259.417969 91.179688 259.171875 92.082031 259.421875 92.914062 C 259.671875 93.75 260.371094 94.371094 261.230469 94.515625 C 266.375 95.40625 270.785156 95.023438 274.371094 93.378906 C 275.222656 95.742188 275.328125 98.269531 274.679688 100.699219 L 269.808594 118.890625 C 269 121.90625 267.578125 124.652344 265.59375 127.046875 C 262.195312 131.136719 256.558594 136.015625 248.996094 136.015625 C 241.191406 136.015625 235.433594 130.855469 231.972656 126.523438 C 230.230469 124.339844 228.960938 121.785156 228.195312 118.917969 L 223.492188 101.367188 C 223.03125 99.632812 223.984375 97.816406 225.714844 97.140625 C 235.304688 93.410156 243.164062 87.78125 249.210938 80.335938 C 247.824219 83.859375 246.015625 87.136719 243.78125 90.203125 C 243.21875 90.976562 243.195312 92.015625 243.722656 92.816406 Z M 233.195312 134.375 C 237.1875 137.785156 242.457031 140.597656 248.996094 140.597656 C 255.554688 140.597656 260.835938 137.746094 264.796875 134.371094 L 264.796875 141.738281 C 264.796875 141.742188 264.800781 141.746094 264.800781 141.746094 C 264.796875 145.507812 259.613281 152.800781 255.039062 159.234375 C 252.953125 162.167969 250.847656 165.140625 249 168.03125 C 247.148438 165.136719 245.03125 162.152344 242.960938 159.238281 C 238.386719 152.800781 233.199219 145.503906 233.199219 141.738281 L 233.199219 134.375 Z M 239.222656 161.890625 C 241.753906 165.453125 244.332031 169.109375 246.355469 172.5 C 244.507812 175.957031 243.300781 179.203125 243.300781 182.019531 L 243.300781 193.964844 C 233.230469 189.011719 231.800781 171.175781 231.605469 166.992188 C 233.769531 164.582031 236.164062 162.652344 238.75 161.222656 C 238.910156 161.449219 239.0625 161.664062 239.222656 161.890625 Z M 282.425781 111.632812 C 281.085938 116.105469 277.382812 117.800781 274.675781 118.429688 L 277.640625 107.355469 C 279.089844 106.421875 280.410156 105.355469 281.582031 104.15625 C 282.882812 106.636719 283.171875 109.144531 282.425781 111.632812 Z M 216.132812 68.402344 C 219.996094 57.480469 232.601562 47.894531 243.105469 47.894531 C 252.167969 47.894531 256.660156 52.617188 256.839844 52.808594 C 257.457031 53.488281 258.417969 53.734375 259.296875 53.429688 C 266.363281 50.949219 278.457031 57.414062 282.851562 69.152344 C 286.5625 79.0625 285.9375 91.824219 279.523438 99.628906 C 279.871094 96.890625 279.566406 94.121094 278.5625 91.5 L 277.691406 89.238281 C 277.4375 88.578125 276.886719 88.070312 276.210938 87.863281 C 275.53125 87.660156 274.796875 87.78125 274.222656 88.195312 C 272.09375 89.707031 269.398438 90.398438 266.199219 90.410156 C 268.90625 86.433594 270.472656 81.300781 270.964844 74.855469 C 271.042969 73.8125 270.40625 72.847656 269.414062 72.511719 C 268.429688 72.183594 267.332031 72.554688 266.757812 73.433594 C 262.425781 80.085938 257.222656 84.699219 250.957031 87.410156 C 254.1875 81.472656 256.160156 74.878906 256.949219 67.425781 C 257.070312 66.3125 256.363281 65.273438 255.28125 64.976562 C 254.195312 64.675781 253.058594 65.207031 252.59375 66.222656 C 246.777344 78.796875 237.171875 87.761719 224.050781 92.871094 C 220.914062 94.089844 218.949219 97.007812 218.828125 100.171875 C 218.601562 99.882812 218.390625 99.582031 218.179688 99.269531 C 218.171875 99.257812 218.167969 99.25 218.160156 99.238281 C 212.96875 91.394531 213.035156 77.15625 216.132812 68.402344 Z M 215.566406 111.632812 C 214.828125 109.171875 215.097656 106.695312 216.359375 104.242188 C 217.53125 105.527344 218.867188 106.609375 220.375 107.445312 L 223.308594 118.398438 C 220.605469 117.765625 216.902344 116.085938 215.566406 111.632812 Z M 222.703125 151.121094 C 224.539062 148.222656 226.667969 146.171875 229.160156 144.898438 C 230.222656 148.523438 232.84375 152.75 236.097656 157.445312 C 233.015625 159.21875 230.175781 161.570312 227.652344 164.515625 C 227.648438 164.519531 227.648438 164.519531 227.644531 164.527344 C 227.609375 164.566406 227.570312 164.601562 227.535156 164.640625 C 227.199219 165.035156 226.757812 165.039062 226.523438 164.992188 C 226.363281 164.964844 225.808594 164.828125 225.574219 164.222656 L 222.246094 155.597656 C 221.679688 154.140625 221.851562 152.46875 222.703125 151.121094 Z M 179.683594 168.542969 C 184.640625 160.851562 206.742188 156.699219 217.472656 155.390625 C 217.578125 156.019531 217.734375 156.648438 217.96875 157.25 L 221.292969 165.875 C 222.039062 167.804688 223.707031 169.164062 225.753906 169.511719 C 226.085938 169.566406 226.410156 169.59375 226.738281 169.59375 C 226.882812 169.59375 227.023438 169.558594 227.167969 169.550781 C 227.671875 175.664062 229.609375 188.40625 237.03125 195.25 L 227.441406 195.25 C 225.859375 195.25 224.359375 195.707031 223.074219 196.496094 L 219.703125 182.625 C 219.363281 181.21875 218.492188 180.027344 217.253906 179.273438 C 216.015625 178.519531 214.558594 178.289062 213.15625 178.636719 L 211.925781 178.9375 C 210.515625 179.273438 209.320312 180.144531 208.566406 181.382812 C 207.816406 182.621094 207.589844 184.074219 207.933594 185.480469 L 211.464844 200.027344 C 210.65625 200.070312 209.878906 200.164062 209.175781 200.335938 C 207.75 200.679688 206.160156 201.882812 204.519531 203.554688 C 203.058594 195.632812 199.949219 188.503906 195.1875 182.332031 C 194.414062 181.332031 192.980469 181.148438 191.96875 181.917969 C 190.96875 182.691406 190.785156 184.128906 191.554688 185.132812 C 196.632812 191.710938 199.65625 199.511719 200.585938 208.308594 C 196.882812 213.417969 193.390625 219.714844 191.367188 223.578125 C 189.625 223.234375 187.824219 223.765625 186.460938 225.199219 L 167.664062 248.628906 C 169.757812 223.65625 174.632812 176.375 179.683594 168.542969 Z M 188.464844 271.242188 C 183.878906 264.578125 175.867188 259.136719 168.328125 255.125 L 189.898438 228.222656 C 190.128906 227.988281 190.398438 228.015625 190.527344 228.054688 C 190.746094 228.113281 190.878906 228.25 190.929688 228.460938 C 191.945312 232.878906 194.050781 236.175781 197.011719 237.996094 C 200.648438 240.234375 205.035156 240.5 207.652344 240.417969 L 209.828125 253.972656 L 192.34375 278.996094 C 191.191406 275.992188 189.90625 273.335938 188.464844 271.242188 Z M 212.800781 294.5625 C 209.214844 294.5625 206.296875 291.652344 206.296875 288.066406 L 206.296875 267.019531 L 210.871094 260.472656 L 216.339844 294.5625 Z M 250.371094 268.183594 C 249.859375 268.847656 249.175781 268.746094 248.910156 268.679688 C 248.640625 268.609375 248 268.347656 247.886719 267.527344 L 246.859375 260.097656 L 251.964844 261.746094 C 252.199219 261.824219 252.4375 261.859375 252.671875 261.859375 C 253.640625 261.859375 254.535156 261.242188 254.847656 260.273438 C 255.238281 259.070312 254.578125 257.777344 253.375 257.386719 L 244.078125 254.386719 C 243.527344 253.894531 242.921875 253.464844 242.242188 253.128906 C 241.132812 252.59375 239.953125 252.339844 238.769531 252.320312 C 238.421875 251.851562 238.300781 251.230469 238.488281 250.652344 C 238.800781 249.6875 239.835938 249.15625 240.8125 249.46875 C 240.8125 249.46875 240.816406 249.46875 240.816406 249.46875 L 254.800781 253.984375 C 255.035156 254.058594 255.269531 254.09375 255.503906 254.09375 C 256.472656 254.09375 257.371094 253.476562 257.683594 252.507812 C 258.074219 251.304688 257.414062 250.011719 256.207031 249.625 L 242.214844 245.101562 C 241.746094 244.953125 241.367188 244.628906 241.144531 244.191406 C 240.917969 243.757812 240.878906 243.257812 241.027344 242.792969 C 241.34375 241.828125 242.382812 241.292969 243.351562 241.609375 L 265.425781 248.734375 Z M 269.339844 243.683594 L 268.410156 244.886719 L 244.757812 237.25 C 241.394531 236.164062 237.757812 238.011719 236.667969 241.386719 C 236.195312 242.84375 236.289062 244.386719 236.867188 245.789062 C 235.621094 246.5625 234.613281 247.738281 234.128906 249.242188 C 233.652344 250.707031 233.753906 252.25 234.308594 253.613281 C 232.308594 254.871094 230.941406 256.851562 230.566406 259.21875 L 227.898438 276.265625 C 227.414062 279.359375 227.835938 282.503906 229.117188 285.359375 C 230.527344 288.515625 230.464844 292.101562 228.933594 295.199219 L 225.550781 302.070312 L 222.183594 302.070312 L 209.179688 221.007812 L 296.15625 221.007812 L 294.074219 233.984375 C 293.742188 233.609375 293.410156 233.230469 293.089844 232.886719 C 291.042969 230.6875 287.734375 230.09375 285.050781 231.453125 C 283.382812 232.292969 282.167969 233.742188 281.621094 235.519531 C 281.078125 237.300781 281.277344 239.175781 282.179688 240.804688 L 282.816406 241.949219 C 281.878906 242.347656 281.027344 242.945312 280.34375 243.746094 C 279.839844 243.164062 279.25 242.652344 278.558594 242.269531 L 277.953125 241.929688 C 275.078125 240.316406 271.367188 241.070312 269.339844 243.683594 Z M 291.339844 251.5625 L 291.417969 251.421875 C 292.296875 249.855469 292.515625 248.039062 292.027344 246.3125 C 291.539062 244.578125 290.40625 243.140625 288.765625 242.222656 C 288.53125 242.09375 288.285156 242.011719 288.042969 241.910156 L 286.1875 238.578125 C 285.894531 238.050781 285.832031 237.441406 286.007812 236.867188 C 286.183594 236.285156 286.578125 235.820312 287.117188 235.546875 C 288.003906 235.101562 289.058594 235.285156 289.734375 236.007812 C 293.78125 240.363281 296.273438 244.570312 296.566406 247.542969 C 296.792969 249.859375 296.191406 252.074219 295.386719 253.929688 C 294.847656 253.273438 294.1875 252.710938 293.40625 252.269531 C 292.742188 251.90625 292.046875 251.691406 291.339844 251.5625 Z M 278.355469 302.070312 C 280.332031 301.078125 282.144531 299.808594 283.757812 298.3125 L 283.152344 302.070312 Z M 299.140625 291.816406 C 299.140625 293.746094 297.566406 295.3125 295.640625 295.3125 L 288.878906 295.3125 L 289.710938 290.136719 L 291.207031 287.578125 C 292.976562 288.457031 295.753906 289.644531 299.140625 290.425781 Z M 317.046875 283.449219 C 307.839844 289.285156 297.691406 285.582031 293.535156 283.589844 L 300.90625 270.976562 C 301.824219 269.402344 302.066406 267.570312 301.589844 265.816406 C 301.109375 264.058594 299.972656 262.601562 298.382812 261.710938 C 297.769531 261.367188 297.125 261.164062 296.46875 261.027344 C 297.339844 259.910156 298.816406 257.789062 299.886719 255.054688 C 306.820312 254.246094 312.710938 255.394531 317.382812 258.535156 C 317.777344 258.800781 318.222656 258.925781 318.660156 258.925781 C 319.398438 258.925781 320.121094 258.570312 320.566406 257.914062 C 321.269531 256.863281 320.992188 255.4375 319.941406 254.734375 C 314.738281 251.234375 308.40625 249.753906 301.089844 250.3125 C 301.1875 249.429688 301.210938 248.523438 301.152344 247.589844 C 305.496094 244.683594 310.523438 243.53125 316.492188 244.125 C 317.742188 244.238281 318.875 243.328125 319 242.070312 C 319.125 240.8125 318.203125 239.691406 316.945312 239.5625 C 310.582031 238.933594 304.902344 240.074219 299.996094 242.917969 C 299.441406 241.585938 298.722656 240.277344 297.914062 239.015625 L 301.101562 219.160156 L 308.285156 188.417969 C 308.574219 187.183594 307.808594 185.953125 306.574219 185.664062 C 305.347656 185.375 304.109375 186.144531 303.824219 187.375 L 297.03125 216.429688 L 278.914062 216.429688 L 278.914062 203.601562 C 278.914062 198.996094 275.164062 195.253906 270.558594 195.253906 L 260.96875 195.253906 C 268.390625 188.40625 270.328125 175.667969 270.832031 169.550781 C 270.976562 169.5625 271.117188 169.597656 271.261719 169.597656 C 271.585938 169.597656 271.914062 169.570312 272.246094 169.515625 C 274.292969 169.167969 275.960938 167.808594 276.703125 165.875 L 280.03125 157.253906 C 280.265625 156.648438 280.417969 156.023438 280.523438 155.390625 C 291.257812 156.699219 313.359375 160.851562 318.316406 168.546875 C 323.902344 177.210938 326.824219 224.917969 327.476562 242.484375 C 327.472656 252.039062 325.605469 278.027344 317.046875 283.449219 Z M 317.046875 283.449219 " fill-opacity="1" fill-rule="nonzero"/></g><path fill="#3a322b" d="M 240.941406 206.921875 L 257.050781 206.921875 C 258.316406 206.921875 259.339844 205.898438 259.339844 204.628906 C 259.339844 203.363281 258.316406 202.339844 257.050781 202.339844 L 240.941406 202.339844 C 239.675781 202.339844 238.648438 203.363281 238.648438 204.628906 C 238.648438 205.898438 239.675781 206.921875 240.941406 206.921875 Z M 240.941406 206.921875 " fill-opacity="1" fill-rule="nonzero"/><path fill="#3a322b" d="M 260.261719 209.785156 L 237.734375 209.785156 C 236.464844 209.785156 235.441406 210.808594 235.441406 212.078125 C 235.441406 213.34375 236.464844 214.371094 237.734375 214.371094 L 260.261719 214.371094 C 261.53125 214.371094 262.554688 213.34375 262.554688 212.078125 C 262.554688 210.808594 261.53125 209.785156 260.261719 209.785156 Z M 260.261719 209.785156 " fill-opacity="1" fill-rule="nonzero"/><g clip-path="url(#cdf6f44444)"><path fill="#3a322b" d="M 64.449219 290.335938 C 63.179688 290.335938 62.15625 291.359375 62.15625 292.628906 L 62.15625 329.734375 C 62.15625 331 63.179688 332.027344 64.449219 332.027344 C 65.714844 332.027344 66.738281 331 66.738281 329.734375 L 66.738281 292.628906 C 66.738281 291.359375 65.714844 290.335938 64.449219 290.335938 Z M 64.449219 290.335938 " fill-opacity="1" fill-rule="nonzero"/></g><g clip-path="url(#4cbc199acd)"><path fill="#3a322b" d="M 152.566406 290.339844 C 151.300781 290.425781 150.347656 291.523438 150.4375 292.785156 L 153 329.929688 C 153.085938 331.140625 154.09375 332.066406 155.285156 332.066406 C 155.339844 332.066406 155.394531 332.0625 155.445312 332.058594 C 156.707031 331.972656 157.660156 330.878906 157.574219 329.613281 L 155.011719 292.46875 C 154.921875 291.203125 153.8125 290.273438 152.566406 290.339844 Z M 152.566406 290.339844 " fill-opacity="1" fill-rule="nonzero"/></g></svg>